{"glyphs":{"0":{"ha":772,"x_min":0,"x_max":0,"o":"m 342 0 b 81 251 199 0 81 114 l 81 722 b 342 972 81 861 199 972 l 458 972 b 719 722 603 972 719 861 l 719 251 b 458 0 719 114 603 0 l 342 0 m 218 251 b 342 140 218 190 275 140 l 458 140 b 510 151 476 140 494 144 l 218 626 l 218 251 m 582 300 l 582 722 b 458 833 582 785 528 833 l 342 833 b 268 813 314 833 289 825 "},"1":{"ha":693,"x_min":0,"x_max":0,"o":"m 61 139 l 297 139 l 297 811 l 61 672 l 61 833 l 297 972 l 436 972 l 436 139 l 672 139 l 672 0 l 61 0 "},"2":{"ha":751,"x_min":0,"x_max":0,"o":"m 71 321 l 543 586 l 543 722 b 432 833 543 785 494 833 l 321 833 b 210 722 260 833 210 783 l 210 674 l 71 674 l 71 722 b 321 972 71 861 183 972 l 432 972 b 682 722 571 972 682 861 l 682 504 l 210 239 l 210 139 l 682 139 l 682 0 l 71 0 "},"3":{"ha":743,"x_min":0,"x_max":0,"o":"m 310 0 b 60 250 172 0 60 111 l 60 299 l 199 299 l 199 250 b 310 139 199 189 249 139 l 421 139 b 532 250 483 139 532 188 l 532 319 b 421 431 532 382 483 431 l 324 431 l 324 569 l 421 569 b 532 681 483 569 532 618 l 532 722 b 421 833 532 785 483 833 l 310 833 b 199 722 249 833 199 783 l 199 674 l 60 674 l 60 722 b 310 972 60 861 172 972 l 421 972 b 671 722 560 972 671 861 l 671 681 b 594 500 671 610 642 546 b 671 319 642 454 671 390 l 671 250 b 421 0 671 111 560 0 l 310 0 "},"4":{"ha":736,"x_min":0,"x_max":0,"o":"m 68 972 l 207 972 l 207 542 l 401 542 l 401 889 l 540 889 l 540 542 l 679 542 l 679 403 l 540 403 l 540 0 l 401 0 l 401 403 l 68 403 "},"5":{"ha":742,"x_min":0,"x_max":0,"o":"m 550 408 b 439 519 550 469 500 519 l 375 519 l 217 413 l 78 413 l 78 972 l 606 972 l 606 833 l 217 833 l 217 581 l 332 658 l 439 658 b 689 408 576 658 689 547 l 689 250 b 439 0 689 111 578 0 l 328 0 b 78 250 190 0 78 111 l 78 264 l 217 264 l 217 250 b 328 139 217 189 267 139 l 439 139 b 550 250 501 139 550 188 l 550 408 "},"6":{"ha":758,"x_min":0,"x_max":0,"o":"m 331 0 b 81 250 193 0 81 111 l 81 722 b 331 972 81 861 192 972 l 442 972 b 692 722 581 972 692 861 l 692 681 l 553 681 l 553 722 b 442 833 553 785 504 833 l 331 833 b 219 722 268 833 219 785 l 219 539 l 335 617 l 442 617 b 692 367 579 617 692 506 l 692 250 b 442 0 692 111 581 0 l 331 0 m 219 250 b 331 139 219 189 269 139 l 442 139 b 553 250 504 139 553 188 l 553 367 b 442 478 553 428 503 478 l 378 478 l 219 371 l 219 250 "},"7":{"ha":715,"x_min":0,"x_max":0,"o":"m 110 271 l 526 701 l 526 833 l 193 833 l 193 681 l 54 681 l 54 972 l 665 972 l 665 646 l 249 215 l 249 0 l 110 0 "},"8":{"ha":744,"x_min":0,"x_max":0,"o":"m 317 0 b 67 251 179 0 67 114 l 67 319 b 151 507 67 394 100 461 b 81 682 108 553 81 614 l 81 722 b 331 972 81 861 193 972 l 414 972 b 664 722 553 972 664 861 l 664 682 b 593 507 664 614 638 553 b 678 319 646 461 678 394 l 678 251 b 428 0 678 114 567 0 l 317 0 m 206 251 b 317 139 206 189 256 138 l 428 139 b 539 251 489 139 539 189 l 539 319 b 428 431 539 382 490 431 l 317 431 b 206 319 254 431 206 381 l 206 251 m 219 682 b 326 569 219 621 267 571 l 414 569 b 525 682 475 569 525 619 l 525 722 b 414 833 525 785 476 833 l 331 833 b 219 722 268 833 219 783 l 219 682 "},"9":{"ha":758,"x_min":0,"x_max":0,"o":"m 428 972 b 678 722 565 972 678 861 l 678 250 b 428 0 678 111 567 0 l 317 0 b 67 250 178 0 67 111 l 67 292 l 206 292 l 206 250 b 317 139 206 188 254 139 l 428 139 b 539 250 490 139 539 188 l 539 433 l 424 356 l 317 356 b 67 606 179 356 67 467 l 67 722 b 317 972 67 861 178 972 l 428 972 m 206 606 b 317 494 206 544 256 494 l 381 494 l 539 601 l 539 722 b 428 833 539 783 489 833 l 317 833 b 206 722 254 833 206 785 l 206 606 "}," ":{"ha":253,"x_min":0,"x_max":0,"o":""}," ":{"ha":253,"x_min":0,"x_max":0,"o":""},"A":{"ha":725,"x_min":0,"x_max":0,"o":"m 50 319 l 293 972 l 432 972 l 675 319 l 675 0 l 536 0 l 536 225 l 189 225 l 189 0 l 50 0 m 510 364 l 364 753 l 361 753 l 215 364 "},"Á":{"ha":725,"x_min":0,"x_max":0,"o":"m 50 319 l 293 972 l 432 972 l 675 319 l 675 0 l 536 0 l 536 225 l 189 225 l 189 0 l 50 0 m 510 364 l 364 753 l 361 753 l 215 364 m 446 1253 l 635 1253 l 421 1042 l 282 1042 "},"Ă":{"ha":725,"x_min":0,"x_max":0,"o":"m 50 319 l 293 972 l 432 972 l 675 319 l 675 0 l 536 0 l 536 225 l 189 225 l 189 0 l 50 0 m 149 1274 l 288 1274 l 288 1272 b 363 1193 288 1228 321 1193 b 436 1272 403 1193 436 1228 l 436 1274 l 575 1274 l 575 1272 b 363 1046 575 1147 479 1046 b 149 1272 244 1046 149 1147 m 510 364 l 364 753 l 361 753 l 215 364 "},"Â":{"ha":725,"x_min":0,"x_max":0,"o":"m 50 319 l 293 972 l 432 972 l 675 319 l 675 0 l 536 0 l 536 225 l 189 225 l 189 0 l 50 0 m 303 1253 l 422 1253 l 617 1042 l 456 1042 l 363 1153 l 269 1042 l 108 1042 m 510 364 l 364 753 l 361 753 l 215 364 "},"Ä":{"ha":725,"x_min":0,"x_max":0,"o":"m 50 319 l 293 972 l 432 972 l 675 319 l 675 0 l 536 0 l 536 225 l 189 225 l 189 0 l 50 0 m 143 1232 l 303 1232 l 303 1078 l 143 1078 m 510 364 l 364 753 l 361 753 l 215 364 m 421 1232 l 581 1232 l 581 1078 l 421 1078 "},"À":{"ha":725,"x_min":0,"x_max":0,"o":"m 50 319 l 293 972 l 432 972 l 675 319 l 675 0 l 536 0 l 536 225 l 189 225 l 189 0 l 50 0 m 271 1265 l 435 1042 l 293 1042 l 85 1265 m 510 364 l 364 753 l 361 753 l 215 364 "},"Ā":{"ha":725,"x_min":0,"x_max":0,"o":"m 50 319 l 293 972 l 432 972 l 675 319 l 675 0 l 536 0 l 536 225 l 189 225 l 189 0 l 50 0 m 140 1215 l 585 1215 l 585 1076 l 140 1076 m 510 364 l 364 753 l 361 753 l 215 364 "},"Ą":{"ha":725,"x_min":0,"x_max":0,"o":"m 50 319 l 293 972 l 432 972 l 675 319 l 675 0 l 668 0 b 685 -153 514 -104 622 -153 l 685 -292 l 596 -292 b 529 0 418 -292 375 -97 l 536 0 l 536 225 l 189 225 l 189 0 l 50 0 m 510 364 l 364 753 l 361 753 l 215 364 "},"Å":{"ha":725,"x_min":0,"x_max":0,"o":"m 50 319 l 290 963 b 186 1128 228 992 186 1054 b 363 1310 186 1229 264 1310 b 538 1128 458 1310 538 1229 b 435 964 538 1056 496 993 l 675 319 l 675 0 l 536 0 l 536 225 l 189 225 l 189 0 l 50 0 m 510 364 l 364 753 l 361 753 l 215 364 m 308 1129 b 361 1068 308 1096 331 1068 b 415 1129 392 1068 415 1096 b 361 1189 415 1164 392 1189 b 308 1129 331 1189 308 1164 "},"Ã":{"ha":725,"x_min":0,"x_max":0,"o":"m 50 319 l 293 972 l 432 972 l 675 319 l 675 0 l 536 0 l 536 225 l 189 225 l 189 0 l 50 0 m 85 1108 b 301 1257 119 1215 188 1261 l 458 1189 b 515 1238 493 1192 503 1203 l 646 1192 b 429 1042 611 1085 543 1038 l 272 1110 b 215 1061 238 1108 228 1097 l 85 1108 m 510 364 l 364 753 l 361 753 l 215 364 "},"Æ":{"ha":1024,"x_min":0,"x_max":0,"o":"m 50 319 l 294 972 l 971 972 l 971 833 l 594 833 l 594 579 l 943 579 l 943 440 l 594 440 l 594 139 l 971 139 l 971 0 l 456 0 l 456 225 l 189 225 l 189 0 l 50 0 m 456 364 l 456 753 l 363 753 l 215 364 "},"B":{"ha":754,"x_min":0,"x_max":0,"o":"m 86 972 l 419 972 b 669 722 558 972 669 861 l 669 667 b 606 500 669 603 646 543 b 697 306 661 454 697 385 l 697 250 b 447 0 697 111 586 0 l 86 0 m 447 139 b 558 250 510 139 558 188 l 558 306 b 447 417 558 368 510 417 l 225 417 l 225 139 m 419 556 b 531 667 482 556 531 604 l 531 722 b 419 833 531 785 482 833 l 225 833 l 225 556 "},"C":{"ha":740,"x_min":0,"x_max":0,"o":"m 325 0 b 75 251 188 0 75 114 l 75 722 b 325 972 75 861 188 972 l 436 972 b 686 722 575 972 686 861 l 686 646 l 547 646 l 547 722 b 436 833 547 785 499 833 l 325 833 b 214 722 263 833 214 783 l 214 251 b 325 140 214 190 264 140 l 436 140 b 547 251 497 140 547 190 l 547 328 l 686 328 l 686 251 b 436 0 686 114 575 0 l 325 0 "},"Ć":{"ha":740,"x_min":0,"x_max":0,"o":"m 325 0 b 75 251 188 0 75 114 l 75 722 b 325 972 75 861 188 972 l 436 972 b 686 722 575 972 686 861 l 686 646 l 547 646 l 547 722 b 436 833 547 785 499 833 l 325 833 b 214 722 263 833 214 783 l 214 251 b 325 140 214 190 264 140 l 436 140 b 547 251 497 140 547 190 l 547 328 l 686 328 l 686 251 b 436 0 686 114 575 0 l 325 0 m 464 1253 l 653 1253 l 439 1042 l 300 1042 "},"Č":{"ha":740,"x_min":0,"x_max":0,"o":"m 325 0 b 75 251 188 0 75 114 l 75 722 b 325 972 75 861 188 972 l 436 972 b 686 722 575 972 686 861 l 686 646 l 547 646 l 547 722 b 436 833 547 785 499 833 l 325 833 b 214 722 263 833 214 783 l 214 251 b 325 140 214 190 264 140 l 436 140 b 547 251 497 140 547 190 l 547 328 l 686 328 l 686 251 b 436 0 686 114 575 0 l 325 0 m 288 1253 l 381 1128 l 474 1253 l 635 1253 l 454 1042 l 307 1042 l 126 1253 "},"Ç":{"ha":740,"x_min":0,"x_max":0,"o":"m 268 -231 l 426 -231 b 463 -201 450 -231 463 -217 b 426 -172 463 -187 450 -172 l 335 -172 l 269 -81 l 301 -47 l 301 1 b 75 251 175 14 75 122 l 75 722 b 325 972 75 861 188 972 l 436 972 b 686 722 575 972 686 861 l 686 646 l 547 646 l 547 722 b 436 833 547 785 499 833 l 325 833 b 214 722 263 833 214 783 l 214 251 b 325 140 214 190 264 140 l 436 140 b 547 251 497 140 547 190 l 547 328 l 686 328 l 686 251 b 440 0 686 115 578 3 l 440 -54 b 601 -201 536 -54 601 -119 b 426 -356 601 -290 522 -356 l 268 -356 "},"Ċ":{"ha":740,"x_min":0,"x_max":0,"o":"m 325 0 b 75 251 188 0 75 114 l 75 722 b 325 972 75 861 188 972 l 436 972 b 686 722 575 972 686 861 l 686 646 l 547 646 l 547 722 b 436 833 547 785 499 833 l 325 833 b 214 722 263 833 214 783 l 214 251 b 325 140 214 190 264 140 l 436 140 b 547 251 497 140 547 190 l 547 328 l 686 328 l 686 251 b 436 0 686 114 575 0 l 325 0 m 300 1231 l 460 1231 l 460 1076 l 300 1076 "},"D":{"ha":772,"x_min":0,"x_max":0,"o":"m 86 972 l 447 972 b 697 722 585 972 697 861 l 697 251 b 447 0 697 114 585 0 l 86 0 m 447 140 b 558 251 508 140 558 190 l 558 722 b 447 833 558 783 510 833 l 225 833 l 225 140 "},"Ð":{"ha":793,"x_min":0,"x_max":0,"o":"m 24 586 l 107 586 l 107 972 l 468 972 b 718 722 606 972 718 861 l 718 251 b 468 0 718 114 606 0 l 107 0 l 107 447 l 24 447 m 468 140 b 579 251 529 140 579 190 l 579 722 b 468 833 579 783 531 833 l 246 833 l 246 586 l 426 586 l 426 447 l 246 447 l 246 140 "},"Ď":{"ha":772,"x_min":0,"x_max":0,"o":"m 86 972 l 447 972 b 697 722 585 972 697 861 l 697 251 b 447 0 697 114 585 0 l 86 0 m 271 1253 l 364 1128 l 457 1253 l 618 1253 l 438 1042 l 290 1042 l 110 1253 m 447 140 b 558 251 508 140 558 190 l 558 722 b 447 833 558 783 510 833 l 225 833 l 225 140 "},"Đ":{"ha":793,"x_min":0,"x_max":0,"o":"m 24 586 l 107 586 l 107 972 l 468 972 b 718 722 606 972 718 861 l 718 251 b 468 0 718 114 606 0 l 107 0 l 107 447 l 24 447 m 468 140 b 579 251 529 140 579 190 l 579 722 b 468 833 579 783 531 833 l 246 833 l 246 586 l 426 586 l 426 447 l 246 447 l 246 140 "},"E":{"ha":694,"x_min":0,"x_max":0,"o":"m 86 972 l 642 972 l 642 833 l 225 833 l 225 579 l 588 579 l 588 440 l 225 440 l 225 139 l 642 139 l 642 0 l 86 0 "},"É":{"ha":694,"x_min":0,"x_max":0,"o":"m 86 972 l 642 972 l 642 833 l 225 833 l 225 579 l 588 579 l 588 440 l 225 440 l 225 139 l 642 139 l 642 0 l 86 0 m 431 1253 l 619 1253 l 406 1042 l 267 1042 "},"Ě":{"ha":694,"x_min":0,"x_max":0,"o":"m 86 972 l 642 972 l 642 833 l 225 833 l 225 579 l 588 579 l 588 440 l 225 440 l 225 139 l 642 139 l 642 0 l 86 0 m 254 1253 l 347 1128 l 440 1253 l 601 1253 l 421 1042 l 274 1042 l 93 1253 "},"Ê":{"ha":694,"x_min":0,"x_max":0,"o":"m 86 972 l 642 972 l 642 833 l 225 833 l 225 579 l 588 579 l 588 440 l 225 440 l 225 139 l 642 139 l 642 0 l 86 0 m 288 1253 l 407 1253 l 601 1042 l 440 1042 l 347 1153 l 254 1042 l 93 1042 "},"Ë":{"ha":694,"x_min":0,"x_max":0,"o":"m 86 972 l 642 972 l 642 833 l 225 833 l 225 579 l 588 579 l 588 440 l 225 440 l 225 139 l 642 139 l 642 0 l 86 0 m 128 1232 l 288 1232 l 288 1078 l 128 1078 m 406 1232 l 565 1232 l 565 1078 l 406 1078 "},"Ė":{"ha":694,"x_min":0,"x_max":0,"o":"m 86 972 l 642 972 l 642 833 l 225 833 l 225 579 l 588 579 l 588 440 l 225 440 l 225 139 l 642 139 l 642 0 l 86 0 m 267 1231 l 426 1231 l 426 1076 l 267 1076 "},"È":{"ha":694,"x_min":0,"x_max":0,"o":"m 86 972 l 642 972 l 642 833 l 225 833 l 225 579 l 588 579 l 588 440 l 225 440 l 225 139 l 642 139 l 642 0 l 86 0 m 256 1265 l 419 1042 l 278 1042 l 69 1265 "},"Ē":{"ha":694,"x_min":0,"x_max":0,"o":"m 86 972 l 642 972 l 642 833 l 225 833 l 225 579 l 588 579 l 588 440 l 225 440 l 225 139 l 642 139 l 642 0 l 86 0 m 125 1215 l 569 1215 l 569 1076 l 125 1076 "},"Ę":{"ha":694,"x_min":0,"x_max":0,"o":"m 86 972 l 642 972 l 642 833 l 225 833 l 225 579 l 588 579 l 588 440 l 225 440 l 225 139 l 642 139 l 642 0 b 658 -153 488 -104 596 -153 l 658 -292 l 569 -292 b 503 0 392 -292 349 -97 l 86 0 "},"F":{"ha":642,"x_min":0,"x_max":0,"o":"m 86 972 l 614 972 l 614 833 l 225 833 l 225 538 l 563 538 l 563 399 l 225 399 l 225 0 l 86 0 "},"G":{"ha":760,"x_min":0,"x_max":0,"o":"m 339 524 l 686 524 l 686 251 b 436 0 686 114 575 0 l 325 0 b 75 251 188 0 75 114 l 75 722 b 325 972 75 861 188 972 l 436 972 b 686 722 575 972 686 861 l 686 646 l 547 646 l 547 722 b 436 833 547 785 499 833 l 325 833 b 214 722 263 833 214 783 l 214 251 b 325 140 214 190 264 140 l 436 140 b 547 251 497 140 547 190 l 547 385 l 339 385 "},"Ğ":{"ha":760,"x_min":0,"x_max":0,"o":"m 339 524 l 686 524 l 686 251 b 436 0 686 114 575 0 l 325 0 b 75 251 188 0 75 114 l 75 722 b 325 972 75 861 188 972 l 436 972 b 686 722 575 972 686 861 l 686 646 l 547 646 l 547 722 b 436 833 547 785 499 833 l 325 833 b 214 722 263 833 214 783 l 214 251 b 325 140 214 190 264 140 l 436 140 b 547 251 497 140 547 190 l 547 385 l 339 385 m 167 1274 l 306 1274 l 306 1272 b 381 1193 306 1228 339 1193 b 454 1272 421 1193 454 1228 l 454 1274 l 593 1274 l 593 1272 b 381 1046 593 1147 497 1046 b 167 1272 263 1046 167 1147 "},"Ģ":{"ha":760,"x_min":0,"x_max":0,"o":"m 339 524 l 686 524 l 686 251 b 436 0 686 114 575 0 l 325 0 b 75 251 188 0 75 114 l 75 722 b 325 972 75 861 188 972 l 436 972 b 686 722 575 972 686 861 l 686 646 l 547 646 l 547 722 b 436 833 547 785 499 833 l 325 833 b 214 722 263 833 214 783 l 214 251 b 325 140 214 190 264 140 l 436 140 b 547 251 497 140 547 190 l 547 385 l 339 385 m 299 -49 l 438 -49 l 404 -154 l 260 -351 l 199 -351 "},"Ġ":{"ha":760,"x_min":0,"x_max":0,"o":"m 339 524 l 686 524 l 686 251 b 436 0 686 114 575 0 l 325 0 b 75 251 188 0 75 114 l 75 722 b 325 972 75 861 188 972 l 436 972 b 686 722 575 972 686 861 l 686 646 l 547 646 l 547 722 b 436 833 547 785 499 833 l 325 833 b 214 722 263 833 214 783 l 214 251 b 325 140 214 190 264 140 l 436 140 b 547 251 497 140 547 190 l 547 385 l 339 385 m 300 1231 l 460 1231 l 460 1076 l 300 1076 "},"H":{"ha":811,"x_min":0,"x_max":0,"o":"m 225 583 l 586 583 l 586 972 l 725 972 l 725 0 l 586 0 l 586 444 l 225 444 l 225 0 l 86 0 l 86 972 l 225 972 "},"Ħ":{"ha":811,"x_min":0,"x_max":0,"o":"m 31 847 l 86 847 l 86 972 l 225 972 l 225 847 l 586 847 l 586 972 l 725 972 l 725 847 l 781 847 l 781 708 l 725 708 l 725 0 l 586 0 l 586 444 l 225 444 l 225 0 l 86 0 l 86 708 l 31 708 m 586 583 l 586 708 l 225 708 l 225 583 "},"I":{"ha":700,"x_min":0,"x_max":0,"o":"m 44 139 l 281 139 l 281 833 l 44 833 l 44 972 l 656 972 l 656 833 l 419 833 l 419 139 l 656 139 l 656 0 l 44 0 "},"Í":{"ha":700,"x_min":0,"x_max":0,"o":"m 44 139 l 281 139 l 281 833 l 44 833 l 44 972 l 656 972 l 656 833 l 419 833 l 419 139 l 656 139 l 656 0 l 44 0 m 433 1253 l 622 1253 l 408 1042 l 269 1042 "},"Î":{"ha":700,"x_min":0,"x_max":0,"o":"m 44 139 l 281 139 l 281 833 l 44 833 l 44 972 l 656 972 l 656 833 l 419 833 l 419 139 l 656 139 l 656 0 l 44 0 m 290 1253 l 410 1253 l 604 1042 l 443 1042 l 350 1153 l 257 1042 l 96 1042 "},"Ï":{"ha":700,"x_min":0,"x_max":0,"o":"m 44 139 l 281 139 l 281 833 l 44 833 l 44 972 l 656 972 l 656 833 l 419 833 l 419 139 l 656 139 l 656 0 l 44 0 m 131 1232 l 290 1232 l 290 1078 l 131 1078 m 408 1232 l 568 1232 l 568 1078 l 408 1078 "},"İ":{"ha":700,"x_min":0,"x_max":0,"o":"m 44 139 l 281 139 l 281 833 l 44 833 l 44 972 l 656 972 l 656 833 l 419 833 l 419 139 l 656 139 l 656 0 l 44 0 m 269 1231 l 429 1231 l 429 1076 l 269 1076 "},"Ì":{"ha":700,"x_min":0,"x_max":0,"o":"m 44 139 l 281 139 l 281 833 l 44 833 l 44 972 l 656 972 l 656 833 l 419 833 l 419 139 l 656 139 l 656 0 l 44 0 m 258 1265 l 422 1042 l 281 1042 l 72 1265 "},"Ī":{"ha":700,"x_min":0,"x_max":0,"o":"m 44 139 l 281 139 l 281 833 l 44 833 l 44 972 l 656 972 l 656 833 l 419 833 l 419 139 l 656 139 l 656 0 l 44 0 m 128 1215 l 572 1215 l 572 1076 l 128 1076 "},"Į":{"ha":700,"x_min":0,"x_max":0,"o":"m 44 139 l 281 139 l 281 833 l 44 833 l 44 972 l 656 972 l 656 833 l 419 833 l 419 139 l 656 139 l 656 0 b 672 -153 501 -104 610 -153 l 672 -292 l 583 -292 b 517 0 406 -292 363 -97 l 44 0 "},"J":{"ha":729,"x_min":0,"x_max":0,"o":"m 286 0 b 36 251 147 0 36 114 l 36 369 l 175 369 l 175 251 b 286 140 175 190 225 140 l 397 140 b 508 251 458 140 508 190 l 508 833 l 161 833 l 161 972 l 647 972 l 647 251 b 397 0 647 114 535 0 l 286 0 "},"K":{"ha":738,"x_min":0,"x_max":0,"o":"m 86 972 l 225 972 l 225 556 l 292 556 l 563 972 l 725 972 l 410 486 l 725 0 l 563 0 l 292 417 l 225 417 l 225 0 l 86 0 "},"Ķ":{"ha":738,"x_min":0,"x_max":0,"o":"m 86 972 l 225 972 l 225 556 l 292 556 l 563 972 l 725 972 l 410 486 l 725 0 l 563 0 l 292 417 l 225 417 l 225 0 l 86 0 m 308 -49 l 447 -49 l 414 -154 l 269 -351 l 208 -351 "},"L":{"ha":640,"x_min":0,"x_max":0,"o":"m 86 972 l 225 972 l 225 139 l 625 139 l 625 0 l 86 0 "},"Ĺ":{"ha":640,"x_min":0,"x_max":0,"o":"m 86 972 l 225 972 l 225 139 l 625 139 l 625 0 l 86 0 m 244 1253 l 433 1253 l 219 1042 l 81 1042 "},"Ľ":{"ha":640,"x_min":0,"x_max":0,"o":"m 86 972 l 225 972 l 225 139 l 625 139 l 625 0 l 86 0 m 68 1253 l 161 1128 l 254 1253 l 415 1253 l 235 1042 l 88 1042 l -93 1253 "},"Ļ":{"ha":640,"x_min":0,"x_max":0,"o":"m 86 972 l 225 972 l 225 139 l 625 139 l 625 0 l 86 0 m 279 -49 l 418 -49 l 385 -154 l 240 -351 l 179 -351 "},"Ł":{"ha":678,"x_min":0,"x_max":0,"o":"m 42 508 l 124 539 l 124 972 l 263 972 l 263 590 l 525 689 l 525 540 l 263 443 l 263 139 l 663 139 l 663 0 l 124 0 l 124 390 l 40 360 "},"M":{"ha":867,"x_min":0,"x_max":0,"o":"m 86 972 l 233 972 l 433 582 l 633 972 l 781 972 l 781 0 l 642 0 l 642 697 l 471 364 l 396 364 l 225 697 l 225 0 l 86 0 "},"N":{"ha":825,"x_min":0,"x_max":0,"o":"m 86 972 l 296 972 l 600 203 l 600 972 l 739 972 l 739 0 l 529 0 l 225 769 l 225 0 l 86 0 "},"Ń":{"ha":825,"x_min":0,"x_max":0,"o":"m 86 972 l 296 972 l 600 203 l 600 972 l 739 972 l 739 0 l 529 0 l 225 769 l 225 0 l 86 0 m 531 1253 l 719 1253 l 506 1042 l 367 1042 "},"Ň":{"ha":825,"x_min":0,"x_max":0,"o":"m 86 972 l 296 972 l 600 203 l 600 972 l 739 972 l 739 0 l 529 0 l 225 769 l 225 0 l 86 0 m 354 1253 l 447 1128 l 540 1253 l 701 1253 l 521 1042 l 374 1042 l 193 1253 "},"Ņ":{"ha":825,"x_min":0,"x_max":0,"o":"m 86 972 l 296 972 l 600 203 l 600 972 l 739 972 l 739 0 l 529 0 l 225 769 l 225 0 l 86 0 m 310 -49 l 449 -49 l 415 -154 l 271 -351 l 210 -351 "},"Ñ":{"ha":825,"x_min":0,"x_max":0,"o":"m 86 972 l 296 972 l 600 203 l 600 972 l 739 972 l 739 0 l 529 0 l 225 769 l 225 0 l 86 0 m 169 1108 b 386 1257 204 1215 272 1261 l 543 1189 b 600 1238 578 1192 588 1203 l 731 1192 b 514 1042 696 1085 628 1038 l 357 1110 b 300 1061 322 1108 313 1097 l 169 1108 "},"Ŋ":{"ha":839,"x_min":0,"x_max":0,"o":"m 392 -153 l 503 -153 b 614 -42 565 -153 614 -104 l 614 0 l 543 0 l 228 767 l 225 767 l 225 0 l 86 0 l 86 972 l 296 972 l 611 206 l 614 206 l 614 972 l 753 972 l 753 -42 b 503 -292 753 -181 642 -292 l 392 -292 "},"O":{"ha":789,"x_min":0,"x_max":0,"o":"m 336 0 b 75 251 193 0 75 114 l 75 722 b 336 972 75 861 193 972 l 453 972 b 714 722 597 972 714 861 l 714 251 b 453 0 714 114 597 0 l 336 0 m 213 251 b 336 140 213 190 269 140 l 453 140 b 576 251 519 140 576 190 l 576 722 b 453 833 576 785 522 833 l 336 833 b 213 722 267 833 213 783 l 213 251 "},"Ó":{"ha":789,"x_min":0,"x_max":0,"o":"m 336 0 b 75 251 193 0 75 114 l 75 722 b 336 972 75 861 193 972 l 453 972 b 714 722 597 972 714 861 l 714 251 b 453 0 714 114 597 0 l 336 0 m 213 251 b 336 140 213 190 269 140 l 453 140 b 576 251 519 140 576 190 l 576 722 b 453 833 576 785 522 833 l 336 833 b 213 722 267 833 213 783 l 213 251 m 478 1253 l 667 1253 l 453 1042 l 314 1042 "},"Ô":{"ha":789,"x_min":0,"x_max":0,"o":"m 336 0 b 75 251 193 0 75 114 l 75 722 b 336 972 75 861 193 972 l 453 972 b 714 722 597 972 714 861 l 714 251 b 453 0 714 114 597 0 l 336 0 m 335 1253 l 454 1253 l 649 1042 l 488 1042 l 394 1153 l 301 1042 l 140 1042 m 213 251 b 336 140 213 190 269 140 l 453 140 b 576 251 519 140 576 190 l 576 722 b 453 833 576 785 522 833 l 336 833 b 213 722 267 833 213 783 l 213 251 "},"Ö":{"ha":789,"x_min":0,"x_max":0,"o":"m 336 0 b 75 251 193 0 75 114 l 75 722 b 336 972 75 861 193 972 l 453 972 b 714 722 597 972 714 861 l 714 251 b 453 0 714 114 597 0 l 336 0 m 175 1232 l 335 1232 l 335 1078 l 175 1078 m 213 251 b 336 140 213 190 269 140 l 453 140 b 576 251 519 140 576 190 l 576 722 b 453 833 576 785 522 833 l 336 833 b 213 722 267 833 213 783 l 213 251 m 453 1232 l 613 1232 l 613 1078 l 453 1078 "},"Ò":{"ha":789,"x_min":0,"x_max":0,"o":"m 336 0 b 75 251 193 0 75 114 l 75 722 b 336 972 75 861 193 972 l 453 972 b 714 722 597 972 714 861 l 714 251 b 453 0 714 114 597 0 l 336 0 m 303 1265 l 467 1042 l 325 1042 l 117 1265 m 213 251 b 336 140 213 190 269 140 l 453 140 b 576 251 519 140 576 190 l 576 722 b 453 833 576 785 522 833 l 336 833 b 213 722 267 833 213 783 l 213 251 "},"Ő":{"ha":789,"x_min":0,"x_max":0,"o":"m 336 0 b 75 251 193 0 75 114 l 75 722 b 336 972 75 861 193 972 l 453 972 b 714 722 597 972 714 861 l 714 251 b 453 0 714 114 597 0 l 336 0 m 363 1253 l 551 1253 l 357 1042 l 196 1042 m 213 251 b 336 140 213 190 269 140 l 453 140 b 576 251 519 140 576 190 l 576 722 b 453 833 576 785 522 833 l 336 833 b 213 722 267 833 213 783 l 213 251 m 621 1253 l 810 1253 l 615 1042 l 454 1042 "},"Ō":{"ha":789,"x_min":0,"x_max":0,"o":"m 336 0 b 75 251 193 0 75 114 l 75 722 b 336 972 75 861 193 972 l 453 972 b 714 722 597 972 714 861 l 714 251 b 453 0 714 114 597 0 l 336 0 m 172 1215 l 617 1215 l 617 1076 l 172 1076 m 213 251 b 336 140 213 190 269 140 l 453 140 b 576 251 519 140 576 190 l 576 722 b 453 833 576 785 522 833 l 336 833 b 213 722 267 833 213 783 l 213 251 "},"Ø":{"ha":789,"x_min":0,"x_max":0,"o":"m 164 64 b 75 251 110 110 75 176 l 75 722 b 336 972 75 861 193 972 l 453 972 b 533 960 481 972 508 968 l 599 1118 l 706 1118 l 621 914 b 714 722 678 868 714 799 l 714 251 b 453 0 714 114 597 0 l 336 0 b 250 14 306 0 278 6 l 185 -146 l 78 -146 m 213 251 b 224 207 213 236 217 221 l 481 831 b 453 833 471 832 463 833 l 336 833 b 213 722 267 833 213 783 l 213 251 m 304 144 b 336 140 314 142 325 140 l 453 140 b 576 251 519 140 576 190 l 576 722 b 564 772 576 740 572 758 l 304 144 "},"Õ":{"ha":789,"x_min":0,"x_max":0,"o":"m 336 0 b 75 251 193 0 75 114 l 75 722 b 336 972 75 861 193 972 l 453 972 b 714 722 597 972 714 861 l 714 251 b 453 0 714 114 597 0 l 336 0 m 117 1108 b 333 1257 151 1215 219 1261 l 490 1189 b 547 1238 525 1192 535 1203 l 678 1192 b 461 1042 643 1085 575 1038 l 304 1110 b 247 1061 269 1108 260 1097 l 117 1108 m 213 251 b 336 140 213 190 269 140 l 453 140 b 576 251 519 140 576 190 l 576 722 b 453 833 576 785 522 833 l 336 833 b 213 722 267 833 213 783 l 213 251 "},"Œ":{"ha":1003,"x_min":0,"x_max":0,"o":"m 353 0 b 75 251 197 0 75 118 l 75 722 b 353 972 75 861 200 972 b 490 939 403 972 450 960 l 490 972 l 950 972 l 950 833 l 628 833 l 628 579 l 918 579 l 918 440 l 628 440 l 628 139 l 950 139 l 950 0 l 490 0 l 490 35 b 353 0 450 13 403 0 m 213 251 b 353 140 213 190 276 140 b 490 251 426 140 490 190 l 490 722 b 353 833 490 785 428 833 b 213 722 275 833 213 783 l 213 251 "},"P":{"ha":738,"x_min":0,"x_max":0,"o":"m 86 972 l 447 972 b 697 722 586 972 697 861 l 697 639 b 447 389 697 500 586 389 l 225 389 l 225 0 l 86 0 m 447 528 b 558 639 510 528 558 576 l 558 722 b 447 833 558 785 510 833 l 225 833 l 225 528 "},"Þ":{"ha":753,"x_min":0,"x_max":0,"o":"m 86 972 l 225 972 l 225 792 l 447 792 b 697 542 586 792 697 681 l 697 458 b 447 208 697 319 586 208 l 225 208 l 225 0 l 86 0 m 447 347 b 558 458 510 347 558 396 l 558 542 b 447 653 558 604 510 653 l 225 653 l 225 347 "},"Q":{"ha":789,"x_min":0,"x_max":0,"o":"m 451 0 l 336 0 b 75 251 193 0 75 114 l 75 722 b 336 972 75 861 193 972 l 453 972 b 714 722 597 972 714 861 l 714 251 b 592 39 714 163 665 83 l 686 -114 l 564 -182 m 213 251 b 336 140 213 190 269 140 l 453 140 b 576 251 519 140 576 190 l 576 722 b 453 833 576 785 522 833 l 336 833 b 213 722 267 833 213 783 l 213 251 "},"R":{"ha":747,"x_min":0,"x_max":0,"o":"m 368 389 l 225 389 l 225 0 l 86 0 l 86 972 l 447 972 b 697 722 586 972 697 861 l 697 639 b 515 399 697 524 621 428 l 697 0 l 544 0 m 447 528 b 558 639 510 528 558 576 l 558 722 b 447 833 558 785 510 833 l 225 833 l 225 528 "},"Ŕ":{"ha":747,"x_min":0,"x_max":0,"o":"m 368 389 l 225 389 l 225 0 l 86 0 l 86 972 l 447 972 b 697 722 586 972 697 861 l 697 639 b 515 399 697 524 621 428 l 697 0 l 544 0 m 447 528 b 558 639 510 528 558 576 l 558 722 b 447 833 558 785 510 833 l 225 833 l 225 528 m 475 1253 l 664 1253 l 450 1042 l 311 1042 "},"Ř":{"ha":747,"x_min":0,"x_max":0,"o":"m 368 389 l 225 389 l 225 0 l 86 0 l 86 972 l 447 972 b 697 722 586 972 697 861 l 697 639 b 515 399 697 524 621 428 l 697 0 l 544 0 m 299 1253 l 392 1128 l 485 1253 l 646 1253 l 465 1042 l 318 1042 l 138 1253 m 447 528 b 558 639 510 528 558 576 l 558 722 b 447 833 558 785 510 833 l 225 833 l 225 528 "},"Ŗ":{"ha":747,"x_min":0,"x_max":0,"o":"m 368 389 l 225 389 l 225 0 l 86 0 l 86 972 l 447 972 b 697 722 586 972 697 861 l 697 639 b 515 399 697 524 621 428 l 697 0 l 544 0 m 310 -49 l 449 -49 l 415 -154 l 271 -351 l 210 -351 m 447 528 b 558 639 510 528 558 576 l 558 722 b 447 833 558 785 510 833 l 225 833 l 225 528 "},"S":{"ha":717,"x_min":0,"x_max":0,"o":"m 311 0 b 53 258 168 0 53 115 l 53 314 l 192 314 l 192 258 b 311 139 192 193 246 139 l 404 139 b 525 244 475 139 525 183 b 67 742 525 436 67 478 b 325 972 67 878 174 972 l 390 972 b 650 714 533 972 650 857 l 650 672 l 511 672 l 511 714 b 390 833 511 781 457 833 l 325 833 b 206 742 250 833 206 799 b 664 244 206 594 664 538 b 404 0 664 106 551 0 l 311 0 "},"Ś":{"ha":717,"x_min":0,"x_max":0,"o":"m 311 0 b 53 258 168 0 53 115 l 53 314 l 192 314 l 192 258 b 311 139 192 193 246 139 l 404 139 b 525 244 475 139 525 183 b 67 742 525 436 67 478 b 325 972 67 878 174 972 l 390 972 b 650 714 533 972 650 857 l 650 672 l 511 672 l 511 714 b 390 833 511 781 457 833 l 325 833 b 206 742 250 833 206 799 b 664 244 206 594 664 538 b 404 0 664 106 551 0 l 311 0 m 442 1253 l 631 1253 l 417 1042 l 278 1042 "},"Š":{"ha":717,"x_min":0,"x_max":0,"o":"m 311 0 b 53 258 168 0 53 115 l 53 314 l 192 314 l 192 258 b 311 139 192 193 246 139 l 404 139 b 525 244 475 139 525 183 b 67 742 525 436 67 478 b 325 972 67 878 174 972 l 390 972 b 650 714 533 972 650 857 l 650 672 l 511 672 l 511 714 b 390 833 511 781 457 833 l 325 833 b 206 742 250 833 206 799 b 664 244 206 594 664 538 b 404 0 664 106 551 0 l 311 0 m 265 1253 l 358 1128 l 451 1253 l 613 1253 l 432 1042 l 285 1042 l 104 1253 "},"Ş":{"ha":717,"x_min":0,"x_max":0,"o":"m 246 -231 l 404 -231 b 440 -201 428 -231 440 -217 b 404 -172 440 -187 428 -172 l 313 -172 l 247 -81 l 279 -47 l 279 1 b 53 258 151 18 53 126 l 53 314 l 192 314 l 192 258 b 311 139 192 193 246 139 l 404 139 b 525 244 475 139 525 183 b 67 742 525 436 67 478 b 325 972 67 878 174 972 l 390 972 b 650 714 533 972 650 857 l 650 672 l 511 672 l 511 714 b 390 833 511 781 457 833 l 325 833 b 206 742 250 833 206 799 b 664 244 206 594 664 538 b 418 0 664 110 558 7 l 418 -54 b 579 -201 514 -54 579 -119 b 404 -356 579 -290 500 -356 l 246 -356 "},"Ș":{"ha":717,"x_min":0,"x_max":0,"o":"m 311 0 b 53 258 168 0 53 115 l 53 314 l 192 314 l 192 258 b 311 139 192 193 246 139 l 404 139 b 525 244 475 139 525 183 b 67 742 525 436 67 478 b 325 972 67 878 174 972 l 390 972 b 650 714 533 972 650 857 l 650 672 l 511 672 l 511 714 b 390 833 511 781 457 833 l 325 833 b 206 742 250 833 206 799 b 664 244 206 594 664 538 b 404 0 664 106 551 0 l 311 0 m 276 -49 l 415 -49 l 382 -154 l 238 -351 l 176 -351 "},"T":{"ha":667,"x_min":0,"x_max":0,"o":"m 264 833 l 28 833 l 28 972 l 639 972 l 639 833 l 403 833 l 403 0 l 264 0 "},"Ŧ":{"ha":667,"x_min":0,"x_max":0,"o":"m 264 440 l 96 440 l 96 579 l 264 579 l 264 833 l 28 833 l 28 972 l 639 972 l 639 833 l 403 833 l 403 579 l 596 579 l 596 440 l 403 440 l 403 0 l 264 0 "},"Ť":{"ha":667,"x_min":0,"x_max":0,"o":"m 264 833 l 28 833 l 28 972 l 639 972 l 639 833 l 403 833 l 403 0 l 264 0 m 240 1253 l 333 1128 l 426 1253 l 588 1253 l 407 1042 l 260 1042 l 79 1253 "},"Ţ":{"ha":667,"x_min":0,"x_max":0,"o":"m 28 833 l 28 972 l 639 972 l 639 833 l 403 833 l 403 -54 b 564 -201 499 -54 564 -119 b 389 -356 564 -290 485 -356 l 231 -356 l 231 -231 l 389 -231 b 425 -201 413 -231 425 -217 b 389 -172 425 -187 413 -172 l 297 -172 l 232 -81 l 264 -47 l 264 833 "},"Ț":{"ha":667,"x_min":0,"x_max":0,"o":"m 264 833 l 28 833 l 28 972 l 639 972 l 639 833 l 403 833 l 403 0 l 264 0 m 261 -49 l 400 -49 l 367 -154 l 222 -351 l 161 -351 "},"U":{"ha":789,"x_min":0,"x_max":0,"o":"m 332 0 b 82 251 193 0 82 114 l 82 972 l 221 972 l 221 251 b 332 140 221 190 271 140 l 457 140 b 568 251 518 140 568 190 l 568 972 l 707 972 l 707 251 b 457 0 707 114 594 0 l 332 0 "},"Ú":{"ha":789,"x_min":0,"x_max":0,"o":"m 332 0 b 82 251 193 0 82 114 l 82 972 l 221 972 l 221 251 b 332 140 221 190 271 140 l 457 140 b 568 251 518 140 568 190 l 568 972 l 707 972 l 707 251 b 457 0 707 114 594 0 l 332 0 m 478 1253 l 667 1253 l 453 1042 l 314 1042 "},"Û":{"ha":789,"x_min":0,"x_max":0,"o":"m 332 0 b 82 251 193 0 82 114 l 82 972 l 221 972 l 221 251 b 332 140 221 190 271 140 l 457 140 b 568 251 518 140 568 190 l 568 972 l 707 972 l 707 251 b 457 0 707 114 594 0 l 332 0 m 335 1253 l 454 1253 l 649 1042 l 488 1042 l 394 1153 l 301 1042 l 140 1042 "},"Ü":{"ha":789,"x_min":0,"x_max":0,"o":"m 332 0 b 82 251 193 0 82 114 l 82 972 l 221 972 l 221 251 b 332 140 221 190 271 140 l 457 140 b 568 251 518 140 568 190 l 568 972 l 707 972 l 707 251 b 457 0 707 114 594 0 l 332 0 m 175 1232 l 335 1232 l 335 1078 l 175 1078 m 453 1232 l 613 1232 l 613 1078 l 453 1078 "},"Ù":{"ha":789,"x_min":0,"x_max":0,"o":"m 332 0 b 82 251 193 0 82 114 l 82 972 l 221 972 l 221 251 b 332 140 221 190 271 140 l 457 140 b 568 251 518 140 568 190 l 568 972 l 707 972 l 707 251 b 457 0 707 114 594 0 l 332 0 m 303 1265 l 467 1042 l 325 1042 l 117 1265 "},"Ű":{"ha":789,"x_min":0,"x_max":0,"o":"m 332 0 b 82 251 193 0 82 114 l 82 972 l 221 972 l 221 251 b 332 140 221 190 271 140 l 457 140 b 568 251 518 140 568 190 l 568 972 l 707 972 l 707 251 b 457 0 707 114 594 0 l 332 0 m 363 1253 l 551 1253 l 357 1042 l 196 1042 m 621 1253 l 810 1253 l 615 1042 l 454 1042 "},"Ū":{"ha":789,"x_min":0,"x_max":0,"o":"m 332 0 b 82 251 193 0 82 114 l 82 972 l 221 972 l 221 251 b 332 140 221 190 271 140 l 457 140 b 568 251 518 140 568 190 l 568 972 l 707 972 l 707 251 b 457 0 707 114 594 0 l 332 0 m 172 1215 l 617 1215 l 617 1076 l 172 1076 "},"Ų":{"ha":789,"x_min":0,"x_max":0,"o":"m 332 0 b 82 251 193 0 82 114 l 82 972 l 221 972 l 221 251 b 332 140 221 190 271 140 l 457 140 b 568 251 518 140 568 190 l 568 972 l 707 972 l 707 251 b 539 14 707 143 636 49 l 544 14 b 561 -139 390 -90 499 -139 l 561 -278 l 472 -278 b 386 0 303 -278 256 -100 l 332 0 "},"Ů":{"ha":789,"x_min":0,"x_max":0,"o":"m 332 0 b 82 251 193 0 82 114 l 82 972 l 221 972 l 221 251 b 332 140 221 190 271 140 l 457 140 b 568 251 518 140 568 190 l 568 972 l 707 972 l 707 251 b 457 0 707 114 594 0 l 332 0 m 218 1128 b 394 1310 218 1229 296 1310 b 569 1128 490 1310 569 1229 b 394 947 569 1029 490 947 b 218 1128 296 947 218 1028 m 340 1129 b 393 1068 340 1096 363 1068 b 447 1129 424 1068 447 1096 b 393 1189 447 1164 424 1189 b 340 1129 363 1189 340 1164 "},"V":{"ha":719,"x_min":0,"x_max":0,"o":"m 54 653 l 54 972 l 193 972 l 193 678 l 358 219 l 361 219 l 526 678 l 526 972 l 665 972 l 665 653 l 429 0 l 290 0 "},"W":{"ha":872,"x_min":0,"x_max":0,"o":"m 68 653 l 68 972 l 206 972 l 206 694 l 272 324 l 378 722 l 494 722 l 600 324 l 667 694 l 667 972 l 804 972 l 804 653 l 682 0 l 564 0 l 436 415 l 308 0 l 190 0 "},"Ẃ":{"ha":872,"x_min":0,"x_max":0,"o":"m 68 653 l 68 972 l 206 972 l 206 694 l 272 324 l 378 722 l 494 722 l 600 324 l 667 694 l 667 972 l 804 972 l 804 653 l 682 0 l 564 0 l 436 415 l 308 0 l 190 0 m 519 1253 l 708 1253 l 494 1042 l 356 1042 "},"Ŵ":{"ha":872,"x_min":0,"x_max":0,"o":"m 68 653 l 68 972 l 206 972 l 206 694 l 272 324 l 378 722 l 494 722 l 600 324 l 667 694 l 667 972 l 804 972 l 804 653 l 682 0 l 564 0 l 436 415 l 308 0 l 190 0 m 376 1253 l 496 1253 l 690 1042 l 529 1042 l 436 1153 l 343 1042 l 182 1042 "},"Ẅ":{"ha":872,"x_min":0,"x_max":0,"o":"m 68 653 l 68 972 l 206 972 l 206 694 l 272 324 l 378 722 l 494 722 l 600 324 l 667 694 l 667 972 l 804 972 l 804 653 l 682 0 l 564 0 l 436 415 l 308 0 l 190 0 m 217 1232 l 376 1232 l 376 1078 l 217 1078 m 494 1232 l 654 1232 l 654 1078 l 494 1078 "},"Ẁ":{"ha":872,"x_min":0,"x_max":0,"o":"m 68 653 l 68 972 l 206 972 l 206 694 l 272 324 l 378 722 l 494 722 l 600 324 l 667 694 l 667 972 l 804 972 l 804 653 l 682 0 l 564 0 l 436 415 l 308 0 l 190 0 m 344 1265 l 508 1042 l 367 1042 l 158 1265 "},"X":{"ha":714,"x_min":0,"x_max":0,"o":"m 357 343 l 175 0 l 17 0 l 279 489 l 24 972 l 175 972 l 357 633 l 539 972 l 690 972 l 435 489 l 697 0 l 539 0 "},"Y":{"ha":714,"x_min":0,"x_max":0,"o":"m 51 639 l 51 972 l 190 972 l 190 689 l 354 485 l 360 485 l 524 689 l 524 972 l 663 972 l 663 639 l 426 346 l 426 0 l 288 0 l 288 346 "},"Ý":{"ha":714,"x_min":0,"x_max":0,"o":"m 51 639 l 51 972 l 190 972 l 190 689 l 354 485 l 360 485 l 524 689 l 524 972 l 663 972 l 663 639 l 426 346 l 426 0 l 288 0 l 288 346 m 440 1253 l 629 1253 l 415 1042 l 276 1042 "},"Ŷ":{"ha":714,"x_min":0,"x_max":0,"o":"m 51 639 l 51 972 l 190 972 l 190 689 l 354 485 l 360 485 l 524 689 l 524 972 l 663 972 l 663 639 l 426 346 l 426 0 l 288 0 l 288 346 m 297 1253 l 417 1253 l 611 1042 l 450 1042 l 357 1153 l 264 1042 l 103 1042 "},"Ÿ":{"ha":714,"x_min":0,"x_max":0,"o":"m 51 639 l 51 972 l 190 972 l 190 689 l 354 485 l 360 485 l 524 689 l 524 972 l 663 972 l 663 639 l 426 346 l 426 0 l 288 0 l 288 346 m 138 1232 l 297 1232 l 297 1078 l 138 1078 m 415 1232 l 575 1232 l 575 1078 l 415 1078 "},"Ỳ":{"ha":714,"x_min":0,"x_max":0,"o":"m 51 639 l 51 972 l 190 972 l 190 689 l 354 485 l 360 485 l 524 689 l 524 972 l 663 972 l 663 639 l 426 346 l 426 0 l 288 0 l 288 346 m 265 1265 l 429 1042 l 288 1042 l 79 1265 "},"Z":{"ha":681,"x_min":0,"x_max":0,"o":"m 472 833 l 49 833 l 49 972 l 632 972 l 632 833 l 210 139 l 632 139 l 632 0 l 49 0 l 49 139 "},"Ź":{"ha":681,"x_min":0,"x_max":0,"o":"m 472 833 l 49 833 l 49 972 l 632 972 l 632 833 l 210 139 l 632 139 l 632 0 l 49 0 l 49 139 m 424 1253 l 613 1253 l 399 1042 l 260 1042 "},"Ž":{"ha":681,"x_min":0,"x_max":0,"o":"m 472 833 l 49 833 l 49 972 l 632 972 l 632 833 l 210 139 l 632 139 l 632 0 l 49 0 l 49 139 m 247 1253 l 340 1128 l 433 1253 l 594 1253 l 414 1042 l 267 1042 l 86 1253 "},"Ż":{"ha":681,"x_min":0,"x_max":0,"o":"m 472 833 l 49 833 l 49 972 l 632 972 l 632 833 l 210 139 l 632 139 l 632 0 l 49 0 l 49 139 m 260 1231 l 419 1231 l 419 1076 l 260 1076 "},"a":{"ha":763,"x_min":0,"x_max":0,"o":"m 314 0 b 64 250 176 0 64 113 l 64 458 b 314 708 64 597 176 708 l 421 708 l 536 631 l 536 708 l 675 708 l 675 0 l 536 0 l 536 78 l 421 0 l 314 0 m 203 250 b 314 139 203 189 253 139 l 378 139 l 536 246 l 536 463 l 378 569 l 314 569 b 203 458 253 569 203 519 l 203 250 "},"á":{"ha":763,"x_min":0,"x_max":0,"o":"m 314 0 b 64 250 176 0 64 113 l 64 458 b 314 708 64 597 176 708 l 421 708 l 536 631 l 536 708 l 675 708 l 675 0 l 536 0 l 536 78 l 421 0 l 314 0 m 203 250 b 314 139 203 189 253 139 l 378 139 l 536 246 l 536 463 l 378 569 l 314 569 b 203 458 253 569 203 519 l 203 250 m 467 1044 l 656 1044 l 442 833 l 303 833 "},"ă":{"ha":763,"x_min":0,"x_max":0,"o":"m 314 0 b 64 250 176 0 64 113 l 64 458 b 314 708 64 597 176 708 l 421 708 l 536 631 l 536 708 l 675 708 l 675 0 l 536 0 l 536 78 l 421 0 l 314 0 m 183 1049 l 322 1049 l 322 1047 b 397 972 322 1006 356 972 b 471 1047 438 972 471 1006 l 471 1049 l 610 1049 l 610 1047 b 397 833 610 929 514 833 b 183 1047 279 833 183 929 m 203 250 b 314 139 203 189 253 139 l 378 139 l 536 246 l 536 463 l 378 569 l 314 569 b 203 458 253 569 203 519 l 203 250 "},"â":{"ha":763,"x_min":0,"x_max":0,"o":"m 314 0 b 64 250 176 0 64 113 l 64 458 b 314 708 64 597 176 708 l 421 708 l 536 631 l 536 708 l 675 708 l 675 0 l 536 0 l 536 78 l 421 0 l 314 0 m 338 1044 l 457 1044 l 651 833 l 490 833 l 397 944 l 304 833 l 143 833 m 203 250 b 314 139 203 189 253 139 l 378 139 l 536 246 l 536 463 l 378 569 l 314 569 b 203 458 253 569 203 519 l 203 250 "},"ä":{"ha":763,"x_min":0,"x_max":0,"o":"m 314 0 b 64 250 176 0 64 113 l 64 458 b 314 708 64 597 176 708 l 421 708 l 536 631 l 536 708 l 675 708 l 675 0 l 536 0 l 536 78 l 421 0 l 314 0 m 178 979 l 338 979 l 338 833 l 178 833 m 203 250 b 314 139 203 189 253 139 l 378 139 l 536 246 l 536 463 l 378 569 l 314 569 b 203 458 253 569 203 519 l 203 250 m 456 979 l 615 979 l 615 833 l 456 833 "},"à":{"ha":763,"x_min":0,"x_max":0,"o":"m 314 0 b 64 250 176 0 64 113 l 64 458 b 314 708 64 597 176 708 l 421 708 l 536 631 l 536 708 l 675 708 l 675 0 l 536 0 l 536 78 l 421 0 l 314 0 m 301 1044 l 465 833 l 324 833 l 115 1044 m 203 250 b 314 139 203 189 253 139 l 378 139 l 536 246 l 536 463 l 378 569 l 314 569 b 203 458 253 569 203 519 l 203 250 "},"ā":{"ha":763,"x_min":0,"x_max":0,"o":"m 314 0 b 64 250 176 0 64 113 l 64 458 b 314 708 64 597 176 708 l 421 708 l 536 631 l 536 708 l 675 708 l 675 0 l 536 0 l 536 78 l 421 0 l 314 0 m 161 972 l 606 972 l 606 833 l 161 833 m 203 250 b 314 139 203 189 253 139 l 378 139 l 536 246 l 536 463 l 378 569 l 314 569 b 203 458 253 569 203 519 l 203 250 "},"ą":{"ha":763,"x_min":0,"x_max":0,"o":"m 314 0 b 64 250 176 0 64 113 l 64 458 b 314 708 64 597 176 708 l 421 708 l 536 631 l 536 708 l 675 708 l 675 0 b 692 -153 521 -104 629 -153 l 692 -292 l 603 -292 b 536 0 425 -292 382 -97 l 536 78 l 421 0 l 314 0 m 203 250 b 314 139 203 189 253 139 l 378 139 l 536 246 l 536 463 l 378 569 l 314 569 b 203 458 253 569 203 519 l 203 250 "},"å":{"ha":763,"x_min":0,"x_max":0,"o":"m 314 0 b 64 250 176 0 64 113 l 64 458 b 314 708 64 597 176 708 l 421 708 l 536 631 l 536 708 l 675 708 l 675 0 l 536 0 l 536 78 l 421 0 l 314 0 m 203 250 b 314 139 203 189 253 139 l 378 139 l 536 246 l 536 463 l 378 569 l 314 569 b 203 458 253 569 203 519 l 203 250 m 221 939 b 397 1110 221 1033 299 1110 b 572 939 493 1110 572 1033 b 397 768 572 846 493 768 b 221 939 299 768 221 844 m 343 940 b 396 882 343 908 365 882 b 450 940 426 882 450 908 b 396 996 450 972 426 996 b 343 940 365 996 343 972 "},"ã":{"ha":763,"x_min":0,"x_max":0,"o":"m 314 0 b 64 250 176 0 64 113 l 64 458 b 314 708 64 597 176 708 l 421 708 l 536 631 l 536 708 l 675 708 l 675 0 l 536 0 l 536 78 l 421 0 l 314 0 m 117 888 b 333 1028 151 988 219 1032 l 490 964 b 547 1010 525 965 535 976 l 678 965 b 461 825 643 865 575 821 l 304 889 b 247 843 269 888 260 876 l 117 888 m 203 250 b 314 139 203 189 253 139 l 378 139 l 536 246 l 536 463 l 378 569 l 314 569 b 203 458 253 569 203 519 l 203 250 "},"æ":{"ha":946,"x_min":0,"x_max":0,"o":"m 640 0 b 536 22 601 0 567 8 l 536 0 l 397 0 l 397 56 l 310 0 l 272 0 b 64 250 149 0 64 85 l 64 458 b 272 708 64 625 149 708 l 310 708 l 397 653 l 397 708 l 536 708 l 536 686 b 640 708 567 700 601 708 b 883 458 797 708 883 593 l 883 322 l 536 322 l 536 251 b 640 140 536 190 569 140 b 744 251 715 140 744 190 l 883 251 b 640 0 883 114 793 0 m 203 250 b 261 139 203 189 214 139 l 269 139 l 397 219 l 397 489 l 269 569 l 261 569 b 203 458 214 569 203 519 l 203 250 m 744 433 l 744 458 b 640 569 744 521 717 569 b 536 458 568 569 536 519 l 536 433 "},"b":{"ha":763,"x_min":0,"x_max":0,"o":"m 226 78 l 226 0 l 88 0 l 88 986 l 226 986 l 226 631 l 342 708 l 449 708 b 699 458 586 708 699 597 l 699 250 b 449 0 699 113 586 0 l 342 0 m 385 139 l 449 139 b 560 250 510 139 560 189 l 560 458 b 449 569 560 519 510 569 l 385 569 l 226 463 l 226 246 "},"c":{"ha":726,"x_min":0,"x_max":0,"o":"m 314 0 b 64 251 176 0 64 114 l 64 458 b 314 708 64 597 176 708 l 425 708 b 675 458 564 708 675 597 l 675 444 l 536 444 l 536 458 b 425 569 536 521 488 569 l 314 569 b 203 458 251 569 203 519 l 203 251 b 314 140 203 190 253 140 l 425 140 b 536 251 486 140 536 190 l 536 265 l 675 265 l 675 251 b 425 0 675 114 564 0 l 314 0 "},"ć":{"ha":726,"x_min":0,"x_max":0,"o":"m 314 0 b 64 251 176 0 64 114 l 64 458 b 314 708 64 597 176 708 l 425 708 b 675 458 564 708 675 597 l 675 444 l 536 444 l 536 458 b 425 569 536 521 488 569 l 314 569 b 203 458 251 569 203 519 l 203 251 b 314 140 203 190 253 140 l 425 140 b 536 251 486 140 536 190 l 536 265 l 675 265 l 675 251 b 425 0 675 114 564 0 l 314 0 m 439 1044 l 628 1044 l 414 833 l 275 833 "},"č":{"ha":726,"x_min":0,"x_max":0,"o":"m 314 0 b 64 251 176 0 64 114 l 64 458 b 314 708 64 597 176 708 l 425 708 b 675 458 564 708 675 597 l 675 444 l 536 444 l 536 458 b 425 569 536 521 488 569 l 314 569 b 203 458 251 569 203 519 l 203 251 b 314 140 203 190 253 140 l 425 140 b 536 251 486 140 536 190 l 536 265 l 675 265 l 675 251 b 425 0 675 114 564 0 l 314 0 m 276 1044 l 369 919 l 463 1044 l 624 1044 l 443 833 l 296 833 l 115 1044 "},"ç":{"ha":726,"x_min":0,"x_max":0,"o":"m 254 -231 l 413 -231 b 449 -201 436 -231 449 -217 b 413 -172 449 -187 436 -172 l 321 -172 l 256 -81 l 288 -47 l 288 1 b 64 251 163 15 64 122 l 64 458 b 314 708 64 597 176 708 l 425 708 b 675 458 564 708 675 597 l 675 444 l 536 444 l 536 458 b 425 569 536 521 488 569 l 314 569 b 203 458 251 569 203 519 l 203 251 b 314 140 203 190 253 140 l 425 140 b 536 251 486 140 536 190 l 536 265 l 675 265 l 675 251 b 426 0 675 114 565 1 l 426 -54 b 588 -201 522 -54 588 -119 b 413 -356 588 -290 508 -356 l 254 -356 "},"ċ":{"ha":726,"x_min":0,"x_max":0,"o":"m 314 0 b 64 251 176 0 64 114 l 64 458 b 314 708 64 597 176 708 l 425 708 b 675 458 564 708 675 597 l 675 444 l 536 444 l 536 458 b 425 569 536 521 488 569 l 314 569 b 203 458 251 569 203 519 l 203 251 b 314 140 203 190 253 140 l 425 140 b 536 251 486 140 536 190 l 536 265 l 675 265 l 675 251 b 425 0 675 114 564 0 l 314 0 m 293 979 l 453 979 l 453 833 l 293 833 "},"d":{"ha":763,"x_min":0,"x_max":0,"o":"m 314 0 b 64 250 176 0 64 113 l 64 458 b 314 708 64 597 176 708 l 421 708 l 536 631 l 536 986 l 675 986 l 675 0 l 536 0 l 536 78 l 421 0 l 314 0 m 203 250 b 314 139 203 189 253 139 l 378 139 l 536 246 l 536 463 l 378 569 l 314 569 b 203 458 253 569 203 519 l 203 250 "},"ď":{"ha":932,"x_min":0,"x_max":0,"o":"m 314 0 b 64 250 176 0 64 113 l 64 458 b 314 708 64 597 176 708 l 421 708 l 536 631 l 536 986 l 675 986 l 675 0 l 536 0 l 536 78 l 421 0 l 314 0 m 203 250 b 314 139 203 189 253 139 l 378 139 l 536 246 l 536 463 l 378 569 l 314 569 b 203 458 253 569 203 519 l 203 250 m 786 986 l 925 986 l 925 846 l 897 694 l 814 694 l 786 846 "},"đ":{"ha":763,"x_min":0,"x_max":0,"o":"m 244 906 l 536 906 l 536 986 l 675 986 l 675 906 l 744 906 l 744 781 l 675 781 l 675 0 l 536 0 l 536 78 l 421 0 l 314 0 b 64 250 176 0 64 113 l 64 458 b 314 708 64 597 176 708 l 421 708 l 536 631 l 536 781 l 244 781 m 203 250 b 314 139 203 189 253 139 l 378 139 l 536 246 l 536 463 l 378 569 l 314 569 b 203 458 253 569 203 519 l 203 250 "},"e":{"ha":738,"x_min":0,"x_max":0,"o":"m 314 0 b 64 251 176 0 64 114 l 64 458 b 314 708 64 597 176 708 l 425 708 b 675 472 560 708 668 604 l 675 322 l 203 322 l 203 251 b 314 140 203 190 253 140 l 425 140 b 536 251 486 140 536 190 l 536 265 l 675 265 l 675 251 b 425 0 675 114 564 0 l 314 0 m 536 433 l 536 458 b 425 569 536 521 488 569 l 314 569 b 203 458 251 569 203 519 l 203 433 "},"é":{"ha":738,"x_min":0,"x_max":0,"o":"m 314 0 b 64 251 176 0 64 114 l 64 458 b 314 708 64 597 176 708 l 425 708 b 675 472 560 708 668 604 l 675 322 l 203 322 l 203 251 b 314 140 203 190 253 140 l 425 140 b 536 251 486 140 536 190 l 536 265 l 675 265 l 675 251 b 425 0 675 114 564 0 l 314 0 m 536 433 l 536 458 b 425 569 536 521 488 569 l 314 569 b 203 458 251 569 203 519 l 203 433 m 439 1044 l 628 1044 l 414 833 l 275 833 "},"ě":{"ha":738,"x_min":0,"x_max":0,"o":"m 314 0 b 64 251 176 0 64 114 l 64 458 b 314 708 64 597 176 708 l 425 708 b 675 472 560 708 668 604 l 675 322 l 203 322 l 203 251 b 314 140 203 190 253 140 l 425 140 b 536 251 486 140 536 190 l 536 265 l 675 265 l 675 251 b 425 0 675 114 564 0 l 314 0 m 276 1044 l 369 919 l 463 1044 l 624 1044 l 443 833 l 296 833 l 115 1044 m 536 433 l 536 458 b 425 569 536 521 488 569 l 314 569 b 203 458 251 569 203 519 l 203 433 "},"ê":{"ha":738,"x_min":0,"x_max":0,"o":"m 314 0 b 64 251 176 0 64 114 l 64 458 b 314 708 64 597 176 708 l 425 708 b 675 472 560 708 668 604 l 675 322 l 203 322 l 203 251 b 314 140 203 190 253 140 l 425 140 b 536 251 486 140 536 190 l 536 265 l 675 265 l 675 251 b 425 0 675 114 564 0 l 314 0 m 310 1044 l 429 1044 l 624 833 l 463 833 l 369 944 l 276 833 l 115 833 m 536 433 l 536 458 b 425 569 536 521 488 569 l 314 569 b 203 458 251 569 203 519 l 203 433 "},"ë":{"ha":738,"x_min":0,"x_max":0,"o":"m 314 0 b 64 251 176 0 64 114 l 64 458 b 314 708 64 597 176 708 l 425 708 b 675 472 560 708 668 604 l 675 322 l 203 322 l 203 251 b 314 140 203 190 253 140 l 425 140 b 536 251 486 140 536 190 l 536 265 l 675 265 l 675 251 b 425 0 675 114 564 0 l 314 0 m 150 979 l 310 979 l 310 833 l 150 833 m 536 433 l 536 458 b 425 569 536 521 488 569 l 314 569 b 203 458 251 569 203 519 l 203 433 m 428 979 l 588 979 l 588 833 l 428 833 "},"ė":{"ha":738,"x_min":0,"x_max":0,"o":"m 314 0 b 64 251 176 0 64 114 l 64 458 b 314 708 64 597 176 708 l 425 708 b 675 472 560 708 668 604 l 675 322 l 203 322 l 203 251 b 314 140 203 190 253 140 l 425 140 b 536 251 486 140 536 190 l 536 265 l 675 265 l 675 251 b 425 0 675 114 564 0 l 314 0 m 536 433 l 536 458 b 425 569 536 521 488 569 l 314 569 b 203 458 251 569 203 519 l 203 433 m 293 979 l 453 979 l 453 833 l 293 833 "},"è":{"ha":738,"x_min":0,"x_max":0,"o":"m 314 0 b 64 251 176 0 64 114 l 64 458 b 314 708 64 597 176 708 l 425 708 b 675 472 560 708 668 604 l 675 322 l 203 322 l 203 251 b 314 140 203 190 253 140 l 425 140 b 536 251 486 140 536 190 l 536 265 l 675 265 l 675 251 b 425 0 675 114 564 0 l 314 0 m 274 1044 l 438 833 l 296 833 l 88 1044 m 536 433 l 536 458 b 425 569 536 521 488 569 l 314 569 b 203 458 251 569 203 519 l 203 433 "},"ē":{"ha":738,"x_min":0,"x_max":0,"o":"m 314 0 b 64 251 176 0 64 114 l 64 458 b 314 708 64 597 176 708 l 425 708 b 675 472 560 708 668 604 l 675 322 l 203 322 l 203 251 b 314 140 203 190 253 140 l 425 140 b 536 251 486 140 536 190 l 536 265 l 675 265 l 675 251 b 425 0 675 114 564 0 l 314 0 m 133 972 l 578 972 l 578 833 l 133 833 m 536 433 l 536 458 b 425 569 536 521 488 569 l 314 569 b 203 458 251 569 203 519 l 203 433 "},"ę":{"ha":738,"x_min":0,"x_max":0,"o":"m 314 0 b 64 251 176 0 64 114 l 64 458 b 314 708 64 597 176 708 l 425 708 b 675 472 560 708 668 604 l 675 322 l 203 322 l 203 251 b 314 140 203 190 253 140 l 425 140 b 536 251 486 140 536 190 l 536 265 l 675 265 l 675 251 b 504 13 675 142 604 46 b 522 -139 353 -90 460 -139 l 522 -278 l 433 -278 b 347 0 264 -278 217 -100 l 314 0 m 536 433 l 536 458 b 425 569 536 521 488 569 l 314 569 b 203 458 251 569 203 519 l 203 433 "},"f":{"ha":611,"x_min":0,"x_max":0,"o":"m 208 736 b 458 986 208 875 319 986 l 590 986 l 590 847 l 458 847 b 347 736 396 847 347 799 l 347 667 l 590 667 l 590 528 l 347 528 l 347 0 l 208 0 l 208 528 l 21 528 l 21 667 l 208 667 l 208 736 "},"g":{"ha":763,"x_min":0,"x_max":0,"o":"m 314 -292 b 64 -40 176 -292 64 -178 l 203 -40 b 314 -151 203 -101 253 -151 l 425 -151 b 536 -40 486 -151 536 -101 l 536 78 l 421 0 l 314 0 b 64 250 176 0 64 113 l 64 458 b 314 708 64 597 176 708 l 421 708 l 536 631 l 536 708 l 675 708 l 675 -40 b 425 -292 675 -178 564 -292 l 314 -292 m 203 250 b 314 139 203 189 253 139 l 378 139 l 536 246 l 536 463 l 378 569 l 314 569 b 203 458 253 569 203 519 l 203 250 "},"ğ":{"ha":763,"x_min":0,"x_max":0,"o":"m 314 -292 b 64 -40 176 -292 64 -178 l 203 -40 b 314 -151 203 -101 253 -151 l 425 -151 b 536 -40 486 -151 536 -101 l 536 78 l 421 0 l 314 0 b 64 250 176 0 64 113 l 64 458 b 314 708 64 597 176 708 l 421 708 l 536 631 l 536 708 l 675 708 l 675 -40 b 425 -292 675 -178 564 -292 l 314 -292 m 156 1049 l 294 1049 l 294 1047 b 369 972 294 1006 328 972 b 443 1047 410 972 443 1006 l 443 1049 l 582 1049 l 582 1047 b 369 833 582 929 486 833 b 156 1047 251 833 156 929 m 203 250 b 314 139 203 189 253 139 l 378 139 l 536 246 l 536 463 l 378 569 l 314 569 b 203 458 253 569 203 519 l 203 250 "},"ģ":{"ha":763,"x_min":0,"x_max":0,"o":"m 314 -292 b 64 -40 176 -292 64 -178 l 203 -40 b 314 -151 203 -101 253 -151 l 425 -151 b 536 -40 486 -151 536 -101 l 536 78 l 421 0 l 314 0 b 64 250 176 0 64 113 l 64 458 b 314 708 64 597 176 708 l 421 708 l 536 631 l 536 708 l 675 708 l 675 -40 b 425 -292 675 -178 564 -292 l 314 -292 m 203 250 b 314 139 203 189 253 139 l 378 139 l 536 246 l 536 463 l 378 569 l 314 569 b 203 458 253 569 203 519 l 203 250 m 297 935 l 442 1125 l 503 1125 l 403 833 l 264 833 "},"ġ":{"ha":763,"x_min":0,"x_max":0,"o":"m 314 -292 b 64 -40 176 -292 64 -178 l 203 -40 b 314 -151 203 -101 253 -151 l 425 -151 b 536 -40 486 -151 536 -101 l 536 78 l 421 0 l 314 0 b 64 250 176 0 64 113 l 64 458 b 314 708 64 597 176 708 l 421 708 l 536 631 l 536 708 l 675 708 l 675 -40 b 425 -292 675 -178 564 -292 l 314 -292 m 203 250 b 314 139 203 189 253 139 l 378 139 l 536 246 l 536 463 l 378 569 l 314 569 b 203 458 253 569 203 519 l 203 250 m 293 979 l 453 979 l 453 833 l 293 833 "},"h":{"ha":781,"x_min":0,"x_max":0,"o":"m 226 986 l 226 631 l 342 708 l 449 708 b 699 458 586 708 699 597 l 699 0 l 560 0 l 560 458 b 449 569 560 519 510 569 l 385 569 l 226 463 l 226 0 l 88 0 l 88 986 "},"ħ":{"ha":781,"x_min":0,"x_max":0,"o":"m 18 906 l 88 906 l 88 986 l 226 986 l 226 906 l 518 906 l 518 781 l 226 781 l 226 631 l 342 708 l 449 708 b 699 458 586 708 699 597 l 699 0 l 560 0 l 560 458 b 449 569 560 519 510 569 l 385 569 l 226 463 l 226 0 l 88 0 l 88 781 l 18 781 "},"i":{"ha":671,"x_min":0,"x_max":0,"o":"m 56 139 l 285 139 l 285 569 l 56 569 l 56 708 l 424 708 l 424 139 l 653 139 l 653 0 l 56 0 m 264 986 l 424 986 l 424 833 l 264 833 "},"ı":{"ha":671,"x_min":0,"x_max":0,"o":"m 56 139 l 285 139 l 285 569 l 56 569 l 56 708 l 424 708 l 424 139 l 653 139 l 653 0 l 56 0 "},"í":{"ha":671,"x_min":0,"x_max":0,"o":"m 56 139 l 285 139 l 285 569 l 56 569 l 56 708 l 424 708 l 424 139 l 653 139 l 653 0 l 56 0 m 417 1044 l 606 1044 l 392 833 l 253 833 "},"î":{"ha":671,"x_min":0,"x_max":0,"o":"m 56 139 l 285 139 l 285 569 l 56 569 l 56 708 l 424 708 l 424 139 l 653 139 l 653 0 l 56 0 m 288 1044 l 407 1044 l 601 833 l 440 833 l 347 944 l 254 833 l 93 833 "},"ï":{"ha":671,"x_min":0,"x_max":0,"o":"m 56 139 l 285 139 l 285 569 l 56 569 l 56 708 l 424 708 l 424 139 l 653 139 l 653 0 l 56 0 m 128 979 l 288 979 l 288 833 l 128 833 m 406 979 l 565 979 l 565 833 l 406 833 "},"ì":{"ha":671,"x_min":0,"x_max":0,"o":"m 56 139 l 285 139 l 285 569 l 56 569 l 56 708 l 424 708 l 424 139 l 653 139 l 653 0 l 56 0 m 251 1044 l 415 833 l 274 833 l 65 1044 "},"ī":{"ha":671,"x_min":0,"x_max":0,"o":"m 56 139 l 285 139 l 285 569 l 56 569 l 56 708 l 424 708 l 424 139 l 653 139 l 653 0 l 56 0 m 111 972 l 556 972 l 556 833 l 111 833 "},"į":{"ha":671,"x_min":0,"x_max":0,"o":"m 56 139 l 285 139 l 285 569 l 56 569 l 56 708 l 424 708 l 424 139 l 653 139 l 653 0 b 669 -153 499 -104 607 -153 l 669 -292 l 581 -292 b 514 0 403 -292 360 -97 l 56 0 m 271 979 l 431 979 l 431 833 l 271 833 "},"j":{"ha":635,"x_min":0,"x_max":0,"o":"m 242 -292 b -8 -40 103 -292 -8 -178 l -8 0 l 131 0 l 131 -40 b 242 -151 131 -101 181 -151 l 297 -151 b 408 -40 358 -151 408 -101 l 408 569 l 165 569 l 165 708 l 547 708 l 547 -40 b 297 -292 547 -178 435 -292 l 242 -292 m 388 986 l 547 986 l 547 833 l 388 833 "},"k":{"ha":713,"x_min":0,"x_max":0,"o":"m 88 986 l 226 986 l 226 424 l 356 424 l 535 708 l 699 708 l 476 354 l 699 0 l 535 0 l 356 285 l 226 285 l 226 0 l 88 0 "},"ķ":{"ha":713,"x_min":0,"x_max":0,"o":"m 88 986 l 226 986 l 226 424 l 356 424 l 535 708 l 699 708 l 476 354 l 699 0 l 535 0 l 356 285 l 226 285 l 226 0 l 88 0 m 304 -42 l 443 -42 l 410 -143 l 265 -333 l 204 -333 "},"l":{"ha":650,"x_min":0,"x_max":0,"o":"m 26 139 l 256 139 l 256 847 l 26 847 l 26 986 l 394 986 l 394 139 l 638 139 l 638 0 l 26 0 "},"ĺ":{"ha":650,"x_min":0,"x_max":0,"o":"m 26 139 l 256 139 l 256 847 l 26 847 l 26 986 l 394 986 l 394 139 l 638 139 l 638 0 l 26 0 m 415 1267 l 604 1267 l 390 1056 l 251 1056 "},"ľ":{"ha":675,"x_min":0,"x_max":0,"o":"m 26 139 l 256 139 l 256 847 l 26 847 l 26 986 l 394 986 l 394 139 l 638 139 l 638 0 l 26 0 m 506 986 l 644 986 l 644 846 l 617 694 l 533 694 l 506 846 "},"ļ":{"ha":650,"x_min":0,"x_max":0,"o":"m 26 139 l 256 139 l 256 847 l 26 847 l 26 986 l 394 986 l 394 139 l 638 139 l 638 0 l 26 0 m 271 -42 l 410 -42 l 376 -143 l 232 -333 l 171 -333 "},"ł":{"ha":669,"x_min":0,"x_max":0,"o":"m 101 508 l 265 569 l 265 847 l 36 847 l 36 986 l 404 986 l 404 621 l 585 689 l 585 540 l 404 474 l 404 139 l 647 139 l 647 0 l 36 0 l 36 139 l 265 139 l 265 421 l 100 360 "},"m":{"ha":1085,"x_min":0,"x_max":0,"o":"m 864 458 b 781 569 864 519 842 569 l 717 569 l 613 481 b 614 458 614 474 614 465 l 614 0 l 475 0 l 475 458 b 392 569 475 519 453 569 l 356 569 l 225 456 l 225 0 l 88 0 l 88 708 l 225 708 l 225 619 l 318 708 l 392 708 b 571 613 471 708 533 671 l 674 708 l 781 708 b 1003 458 918 708 1003 597 l 1003 0 l 864 0 l 864 458 "},"n":{"ha":781,"x_min":0,"x_max":0,"o":"m 560 458 b 449 569 560 519 510 569 l 385 569 l 226 467 l 226 0 l 88 0 l 88 708 l 226 708 l 226 625 l 342 708 l 449 708 b 699 458 586 708 699 597 l 699 0 l 560 0 l 560 458 "},"ń":{"ha":781,"x_min":0,"x_max":0,"o":"m 560 458 b 449 569 560 519 510 569 l 385 569 l 226 467 l 226 0 l 88 0 l 88 708 l 226 708 l 226 625 l 342 708 l 449 708 b 699 458 586 708 699 597 l 699 0 l 560 0 l 560 458 m 463 1044 l 651 1044 l 438 833 l 299 833 "},"ň":{"ha":781,"x_min":0,"x_max":0,"o":"m 560 458 b 449 569 560 519 510 569 l 385 569 l 226 467 l 226 0 l 88 0 l 88 708 l 226 708 l 226 625 l 342 708 l 449 708 b 699 458 586 708 699 597 l 699 0 l 560 0 l 560 458 m 300 1044 l 393 919 l 486 1044 l 647 1044 l 467 833 l 319 833 l 139 1044 "},"ņ":{"ha":781,"x_min":0,"x_max":0,"o":"m 560 458 b 449 569 560 519 510 569 l 385 569 l 226 467 l 226 0 l 88 0 l 88 708 l 226 708 l 226 625 l 342 708 l 449 708 b 699 458 586 708 699 597 l 699 0 l 560 0 l 560 458 m 332 -42 l 471 -42 l 438 -143 l 293 -333 l 232 -333 "},"ñ":{"ha":781,"x_min":0,"x_max":0,"o":"m 560 458 b 449 569 560 519 510 569 l 385 569 l 226 467 l 226 0 l 88 0 l 88 708 l 226 708 l 226 625 l 342 708 l 449 708 b 699 458 586 708 699 597 l 699 0 l 560 0 l 560 458 m 113 888 b 329 1028 147 988 215 1032 l 486 964 b 543 1010 521 965 531 976 l 674 965 b 457 825 639 865 571 821 l 300 889 b 243 843 265 888 256 876 l 113 888 "},"ŋ":{"ha":781,"x_min":0,"x_max":0,"o":"m 338 -153 l 449 -153 b 560 -42 511 -153 560 -104 l 560 458 b 449 569 560 519 510 569 l 385 569 l 226 467 l 226 0 l 88 0 l 88 708 l 226 708 l 226 625 l 342 708 l 449 708 b 699 458 586 708 699 597 l 699 -42 b 449 -292 699 -181 588 -292 l 338 -292 "},"o":{"ha":739,"x_min":0,"x_max":0,"o":"m 314 0 b 64 249 175 0 64 110 l 64 458 b 314 708 64 597 175 708 l 425 708 b 675 458 564 708 675 597 l 675 249 b 425 0 675 110 564 0 l 314 0 m 203 249 b 314 139 203 186 251 140 l 425 139 b 536 249 488 139 536 186 l 536 458 b 425 569 536 521 488 569 l 314 569 b 203 458 251 569 203 521 l 203 249 "},"ó":{"ha":739,"x_min":0,"x_max":0,"o":"m 314 0 b 64 249 175 0 64 110 l 64 458 b 314 708 64 597 175 708 l 425 708 b 675 458 564 708 675 597 l 675 249 b 425 0 675 110 564 0 l 314 0 m 203 249 b 314 139 203 186 251 140 l 425 139 b 536 249 488 139 536 186 l 536 458 b 425 569 536 521 488 569 l 314 569 b 203 458 251 569 203 521 l 203 249 m 439 1044 l 628 1044 l 414 833 l 275 833 "},"ô":{"ha":739,"x_min":0,"x_max":0,"o":"m 314 0 b 64 249 175 0 64 110 l 64 458 b 314 708 64 597 175 708 l 425 708 b 675 458 564 708 675 597 l 675 249 b 425 0 675 110 564 0 l 314 0 m 310 1044 l 429 1044 l 624 833 l 463 833 l 369 944 l 276 833 l 115 833 m 203 249 b 314 139 203 186 251 140 l 425 139 b 536 249 488 139 536 186 l 536 458 b 425 569 536 521 488 569 l 314 569 b 203 458 251 569 203 521 l 203 249 "},"ö":{"ha":739,"x_min":0,"x_max":0,"o":"m 314 0 b 64 249 175 0 64 110 l 64 458 b 314 708 64 597 175 708 l 425 708 b 675 458 564 708 675 597 l 675 249 b 425 0 675 110 564 0 l 314 0 m 150 979 l 310 979 l 310 833 l 150 833 m 203 249 b 314 139 203 186 251 140 l 425 139 b 536 249 488 139 536 186 l 536 458 b 425 569 536 521 488 569 l 314 569 b 203 458 251 569 203 521 l 203 249 m 428 979 l 588 979 l 588 833 l 428 833 "},"ò":{"ha":739,"x_min":0,"x_max":0,"o":"m 314 0 b 64 249 175 0 64 110 l 64 458 b 314 708 64 597 175 708 l 425 708 b 675 458 564 708 675 597 l 675 249 b 425 0 675 110 564 0 l 314 0 m 274 1044 l 438 833 l 296 833 l 88 1044 m 203 249 b 314 139 203 186 251 140 l 425 139 b 536 249 488 139 536 186 l 536 458 b 425 569 536 521 488 569 l 314 569 b 203 458 251 569 203 521 l 203 249 "},"ő":{"ha":739,"x_min":0,"x_max":0,"o":"m 314 0 b 64 249 175 0 64 110 l 64 458 b 314 708 64 597 175 708 l 425 708 b 675 458 564 708 675 597 l 675 249 b 425 0 675 110 564 0 l 314 0 m 313 1044 l 501 1044 l 307 833 l 146 833 m 203 249 b 314 139 203 186 251 140 l 425 139 b 536 249 488 139 536 186 l 536 458 b 425 569 536 521 488 569 l 314 569 b 203 458 251 569 203 521 l 203 249 m 571 1044 l 760 1044 l 565 833 l 404 833 "},"ō":{"ha":739,"x_min":0,"x_max":0,"o":"m 314 0 b 64 249 175 0 64 110 l 64 458 b 314 708 64 597 175 708 l 425 708 b 675 458 564 708 675 597 l 675 249 b 425 0 675 110 564 0 l 314 0 m 133 972 l 578 972 l 578 833 l 133 833 m 203 249 b 314 139 203 186 251 140 l 425 139 b 536 249 488 139 536 186 l 536 458 b 425 569 536 521 488 569 l 314 569 b 203 458 251 569 203 521 l 203 249 "},"ø":{"ha":739,"x_min":0,"x_max":0,"o":"m 314 0 b 257 7 294 0 275 3 l 193 -132 l 72 -132 l 158 54 b 64 249 100 99 64 169 l 64 458 b 314 708 64 597 175 708 l 425 708 b 458 706 436 708 447 707 l 519 840 l 640 840 l 561 668 b 675 458 631 624 675 547 l 675 249 b 425 0 675 110 564 0 l 314 0 m 203 249 b 219 189 203 226 208 206 l 394 569 l 314 569 b 203 458 251 569 203 521 l 203 249 m 425 139 b 536 249 488 139 536 186 l 536 458 b 501 539 536 490 524 519 l 318 139 "},"õ":{"ha":739,"x_min":0,"x_max":0,"o":"m 314 0 b 64 249 175 0 64 110 l 64 458 b 314 708 64 597 175 708 l 425 708 b 675 458 564 708 675 597 l 675 249 b 425 0 675 110 564 0 l 314 0 m 89 888 b 306 1028 124 988 192 1032 l 463 964 b 519 1010 497 965 507 976 l 650 965 b 433 825 615 865 547 821 l 276 889 b 219 843 242 888 232 876 l 89 888 m 203 249 b 314 139 203 186 251 140 l 425 139 b 536 249 488 139 536 186 l 536 458 b 425 569 536 521 488 569 l 314 569 b 203 458 251 569 203 521 l 203 249 "},"œ":{"ha":915,"x_min":0,"x_max":0,"o":"m 619 0 b 458 65 554 0 499 25 b 299 0 418 25 364 0 b 64 256 156 0 64 118 l 64 457 b 299 710 64 597 158 710 b 458 646 365 710 419 685 b 619 710 500 686 554 710 b 853 457 764 710 853 594 l 853 325 l 532 325 l 532 256 b 619 149 532 196 561 149 b 707 256 678 149 707 196 l 853 256 b 619 0 853 115 760 0 m 211 256 b 299 149 211 196 240 149 b 385 256 357 149 385 197 l 385 457 b 299 564 385 517 358 564 b 211 457 239 564 211 517 l 211 256 m 707 432 l 707 457 b 619 564 707 517 679 564 b 532 457 560 564 532 517 l 532 432 "},"p":{"ha":763,"x_min":0,"x_max":0,"o":"m 226 78 l 226 -292 l 88 -292 l 88 708 l 226 708 l 226 631 l 342 708 l 449 708 b 699 458 586 708 699 596 l 699 250 b 449 0 699 111 586 0 l 342 0 m 385 139 l 449 139 b 560 250 510 139 560 189 l 560 458 b 449 569 560 519 510 569 l 385 569 l 226 463 l 226 246 "},"þ":{"ha":763,"x_min":0,"x_max":0,"o":"m 226 78 l 226 -292 l 88 -292 l 88 986 l 226 986 l 226 631 l 342 708 l 449 708 b 699 458 586 708 699 596 l 699 250 b 449 0 699 111 586 0 l 342 0 m 385 139 l 449 139 b 560 250 510 139 560 189 l 560 458 b 449 569 560 519 510 569 l 385 569 l 226 463 l 226 246 "},"q":{"ha":763,"x_min":0,"x_max":0,"o":"m 314 0 b 64 250 176 0 64 111 l 64 458 b 314 708 64 596 176 708 l 421 708 l 536 631 l 536 708 l 675 708 l 675 -292 l 536 -292 l 536 78 l 421 0 l 314 0 m 203 250 b 314 139 203 189 253 139 l 378 139 l 536 246 l 536 463 l 378 569 l 314 569 b 203 458 253 569 203 519 l 203 250 "},"r":{"ha":681,"x_min":0,"x_max":0,"o":"m 88 708 l 226 708 l 226 601 l 383 708 l 424 708 b 657 458 551 708 657 597 l 657 403 l 518 403 l 518 458 b 424 569 518 519 479 569 l 411 569 l 226 446 l 226 0 l 88 0 "},"ŕ":{"ha":681,"x_min":0,"x_max":0,"o":"m 88 708 l 226 708 l 226 601 l 383 708 l 424 708 b 657 458 551 708 657 597 l 657 403 l 518 403 l 518 458 b 424 569 518 519 479 569 l 411 569 l 226 446 l 226 0 l 88 0 m 442 1044 l 631 1044 l 417 833 l 278 833 "},"ř":{"ha":681,"x_min":0,"x_max":0,"o":"m 88 708 l 226 708 l 226 601 l 383 708 l 424 708 b 657 458 551 708 657 597 l 657 403 l 518 403 l 518 458 b 424 569 518 519 479 569 l 411 569 l 226 446 l 226 0 l 88 0 m 279 1044 l 372 919 l 465 1044 l 626 1044 l 446 833 l 299 833 l 118 1044 "},"ŗ":{"ha":681,"x_min":0,"x_max":0,"o":"m 88 708 l 226 708 l 226 601 l 383 708 l 424 708 b 657 458 551 708 657 597 l 657 403 l 518 403 l 518 458 b 424 569 518 519 479 569 l 411 569 l 226 446 l 226 0 l 88 0 m 85 -42 l 224 -42 l 190 -143 l 46 -333 l -15 -333 "},"s":{"ha":696,"x_min":0,"x_max":0,"o":"m 286 0 b 51 206 151 0 51 88 l 51 233 l 190 233 l 190 206 b 286 129 190 161 226 129 l 413 129 b 510 196 478 129 510 156 b 61 521 510 353 61 251 b 283 708 61 633 151 708 l 403 708 b 625 501 528 708 625 618 l 625 489 l 486 489 l 486 501 b 403 579 486 546 451 579 l 283 579 b 200 521 225 579 200 556 b 649 196 200 408 649 479 b 413 0 649 79 553 0 l 286 0 "},"ś":{"ha":696,"x_min":0,"x_max":0,"o":"m 286 0 b 51 206 151 0 51 88 l 51 233 l 190 233 l 190 206 b 286 129 190 161 226 129 l 413 129 b 510 196 478 129 510 156 b 61 521 510 353 61 251 b 283 708 61 633 151 708 l 403 708 b 625 501 528 708 625 618 l 625 489 l 486 489 l 486 501 b 403 579 486 546 451 579 l 283 579 b 200 521 225 579 200 556 b 649 196 200 408 649 479 b 413 0 649 79 553 0 l 286 0 m 419 1044 l 608 1044 l 394 833 l 256 833 "},"š":{"ha":696,"x_min":0,"x_max":0,"o":"m 286 0 b 51 206 151 0 51 88 l 51 233 l 190 233 l 190 206 b 286 129 190 161 226 129 l 413 129 b 510 196 478 129 510 156 b 61 521 510 353 61 251 b 283 708 61 633 151 708 l 403 708 b 625 501 528 708 625 618 l 625 489 l 486 489 l 486 501 b 403 579 486 546 451 579 l 283 579 b 200 521 225 579 200 556 b 649 196 200 408 649 479 b 413 0 649 79 553 0 l 286 0 m 257 1044 l 350 919 l 443 1044 l 604 1044 l 424 833 l 276 833 l 96 1044 "},"ş":{"ha":696,"x_min":0,"x_max":0,"o":"m 235 -231 l 393 -231 b 429 -201 417 -231 429 -217 b 393 -172 429 -187 417 -172 l 301 -172 l 236 -81 l 268 -47 l 268 0 b 51 206 143 8 51 93 l 51 233 l 190 233 l 190 206 b 286 129 190 161 226 129 l 413 129 b 510 196 478 129 510 156 b 61 521 510 353 61 251 b 283 708 61 633 151 708 l 403 708 b 625 501 528 708 625 618 l 625 489 l 486 489 l 486 501 b 403 579 486 546 451 579 l 283 579 b 200 521 225 579 200 556 b 649 196 200 408 649 479 b 413 0 649 79 553 0 l 407 0 l 407 -54 b 568 -201 503 -54 568 -119 b 393 -356 568 -290 489 -356 l 235 -356 "},"ș":{"ha":696,"x_min":0,"x_max":0,"o":"m 286 0 b 51 206 151 0 51 88 l 51 233 l 190 233 l 190 206 b 286 129 190 161 226 129 l 413 129 b 510 196 478 129 510 156 b 61 521 510 353 61 251 b 283 708 61 633 151 708 l 403 708 b 625 501 528 708 625 618 l 625 489 l 486 489 l 486 501 b 403 579 486 546 451 579 l 283 579 b 200 521 225 579 200 556 b 649 196 200 408 649 479 b 413 0 649 79 553 0 l 286 0 m 289 -42 l 428 -42 l 394 -143 l 250 -333 l 189 -333 "},"ß":{"ha":753,"x_min":0,"x_max":0,"o":"m 88 722 b 338 972 88 861 200 972 l 379 972 b 629 722 518 972 629 861 l 629 667 b 581 518 629 611 611 560 b 699 306 651 474 699 396 l 699 250 b 449 0 699 111 588 0 l 338 0 l 338 139 l 449 139 b 560 250 511 139 560 188 l 560 306 b 449 417 560 368 511 417 l 338 417 l 338 556 l 379 556 b 490 667 442 556 490 604 l 490 722 b 379 833 490 785 442 833 l 338 833 b 226 722 276 833 226 783 l 226 0 l 88 0 l 88 722 "},"t":{"ha":678,"x_min":0,"x_max":0,"o":"m 481 0 b 231 250 342 0 231 111 l 231 569 l 15 569 l 15 708 l 231 708 l 231 889 l 369 889 l 369 708 l 626 708 l 626 569 l 369 569 l 369 250 b 481 139 369 188 418 139 l 626 139 l 626 0 l 481 0 "},"ŧ":{"ha":678,"x_min":0,"x_max":0,"o":"m 482 0 b 232 250 343 0 232 111 l 232 301 l 72 301 l 72 440 l 232 440 l 232 569 l 17 569 l 17 708 l 232 708 l 232 889 l 371 889 l 371 708 l 628 708 l 628 569 l 371 569 l 371 440 l 572 440 l 572 301 l 371 301 l 371 250 b 482 139 371 188 419 139 l 628 139 l 628 0 l 482 0 "},"ť":{"ha":678,"x_min":0,"x_max":0,"o":"m 481 0 b 231 250 342 0 231 111 l 231 569 l 15 569 l 15 708 l 231 708 l 231 889 l 369 889 l 369 708 l 626 708 l 626 569 l 369 569 l 369 250 b 481 139 369 188 418 139 l 626 139 l 626 0 l 481 0 m 476 1097 l 615 1097 l 615 957 l 588 806 l 504 806 l 476 957 "},"ţ":{"ha":678,"x_min":0,"x_max":0,"o":"m 15 708 l 231 708 l 231 889 l 369 889 l 369 708 l 626 708 l 626 569 l 369 569 l 369 250 b 481 139 369 188 418 139 l 626 139 l 626 0 l 542 0 l 542 -54 b 703 -201 638 -54 703 -119 b 528 -356 703 -290 624 -356 l 369 -356 l 369 -231 l 528 -231 b 564 -201 551 -231 564 -217 b 528 -172 564 -187 551 -172 l 436 -172 l 371 -81 l 403 -47 l 403 13 b 231 250 303 44 231 139 l 231 569 l 15 569 "},"ț":{"ha":678,"x_min":0,"x_max":0,"o":"m 481 0 b 231 250 342 0 231 111 l 231 569 l 15 569 l 15 708 l 231 708 l 231 889 l 369 889 l 369 708 l 626 708 l 626 569 l 369 569 l 369 250 b 481 139 369 188 418 139 l 626 139 l 626 0 l 481 0 m 424 -42 l 563 -42 l 529 -143 l 385 -333 l 324 -333 "},"u":{"ha":781,"x_min":0,"x_max":0,"o":"m 221 250 b 332 139 221 189 271 139 l 396 139 l 554 242 l 554 708 l 693 708 l 693 0 l 554 0 l 554 83 l 439 0 l 332 0 b 82 250 194 0 82 111 l 82 708 l 221 708 l 221 250 "},"ú":{"ha":781,"x_min":0,"x_max":0,"o":"m 221 250 b 332 139 221 189 271 139 l 396 139 l 554 242 l 554 708 l 693 708 l 693 0 l 554 0 l 554 83 l 439 0 l 332 0 b 82 250 194 0 82 111 l 82 708 l 221 708 l 221 250 m 457 1044 l 646 1044 l 432 833 l 293 833 "},"û":{"ha":781,"x_min":0,"x_max":0,"o":"m 221 250 b 332 139 221 189 271 139 l 396 139 l 554 242 l 554 708 l 693 708 l 693 0 l 554 0 l 554 83 l 439 0 l 332 0 b 82 250 194 0 82 111 l 82 708 l 221 708 l 221 250 m 328 1044 l 447 1044 l 642 833 l 481 833 l 388 944 l 294 833 l 133 833 "},"ü":{"ha":781,"x_min":0,"x_max":0,"o":"m 221 250 b 332 139 221 189 271 139 l 396 139 l 554 242 l 554 708 l 693 708 l 693 0 l 554 0 l 554 83 l 439 0 l 332 0 b 82 250 194 0 82 111 l 82 708 l 221 708 l 221 250 m 168 979 l 328 979 l 328 833 l 168 833 m 446 979 l 606 979 l 606 833 l 446 833 "},"ù":{"ha":781,"x_min":0,"x_max":0,"o":"m 221 250 b 332 139 221 189 271 139 l 396 139 l 554 242 l 554 708 l 693 708 l 693 0 l 554 0 l 554 83 l 439 0 l 332 0 b 82 250 194 0 82 111 l 82 708 l 221 708 l 221 250 m 292 1044 l 456 833 l 314 833 l 106 1044 "},"ű":{"ha":781,"x_min":0,"x_max":0,"o":"m 221 250 b 332 139 221 189 271 139 l 396 139 l 554 242 l 554 708 l 693 708 l 693 0 l 554 0 l 554 83 l 439 0 l 332 0 b 82 250 194 0 82 111 l 82 708 l 221 708 l 221 250 m 331 1044 l 519 1044 l 325 833 l 164 833 m 589 1044 l 778 1044 l 583 833 l 422 833 "},"ū":{"ha":781,"x_min":0,"x_max":0,"o":"m 221 250 b 332 139 221 189 271 139 l 396 139 l 554 242 l 554 708 l 693 708 l 693 0 l 554 0 l 554 83 l 439 0 l 332 0 b 82 250 194 0 82 111 l 82 708 l 221 708 l 221 250 m 151 972 l 596 972 l 596 833 l 151 833 "},"ų":{"ha":781,"x_min":0,"x_max":0,"o":"m 221 250 b 332 139 221 189 271 139 l 396 139 l 554 242 l 554 708 l 693 708 l 693 0 b 710 -153 539 -104 647 -153 l 710 -292 l 621 -292 b 554 0 443 -292 400 -97 l 554 83 l 439 0 l 332 0 b 82 250 194 0 82 111 l 82 708 l 221 708 l 221 250 "},"ů":{"ha":781,"x_min":0,"x_max":0,"o":"m 221 250 b 332 139 221 189 271 139 l 396 139 l 554 242 l 554 708 l 693 708 l 693 0 l 554 0 l 554 83 l 439 0 l 332 0 b 82 250 194 0 82 111 l 82 708 l 221 708 l 221 250 m 211 939 b 388 1110 211 1033 289 1110 b 563 939 483 1110 563 1033 b 388 768 563 846 483 768 b 211 939 289 768 211 844 m 333 940 b 386 882 333 908 356 882 b 440 940 417 882 440 908 b 386 996 440 972 417 996 b 333 940 356 996 333 972 "},"v":{"ha":697,"x_min":0,"x_max":0,"o":"m 57 389 l 57 708 l 196 708 l 196 428 l 347 156 l 350 156 l 501 428 l 501 708 l 640 708 l 640 389 l 418 0 l 279 0 "},"w":{"ha":881,"x_min":0,"x_max":0,"o":"m 57 389 l 57 708 l 196 708 l 196 431 l 265 210 l 383 583 l 497 583 l 615 210 l 685 431 l 685 708 l 824 708 l 824 389 l 692 0 l 574 0 l 440 332 l 307 0 l 189 0 "},"ẃ":{"ha":881,"x_min":0,"x_max":0,"o":"m 57 389 l 57 708 l 196 708 l 196 431 l 265 210 l 383 583 l 497 583 l 615 210 l 685 431 l 685 708 l 824 708 l 824 389 l 692 0 l 574 0 l 440 332 l 307 0 l 189 0 m 510 1044 l 699 1044 l 485 833 l 346 833 "},"ŵ":{"ha":881,"x_min":0,"x_max":0,"o":"m 57 389 l 57 708 l 196 708 l 196 431 l 265 210 l 383 583 l 497 583 l 615 210 l 685 431 l 685 708 l 824 708 l 824 389 l 692 0 l 574 0 l 440 332 l 307 0 l 189 0 m 381 1044 l 500 1044 l 694 833 l 533 833 l 440 944 l 347 833 l 186 833 "},"ẅ":{"ha":881,"x_min":0,"x_max":0,"o":"m 57 389 l 57 708 l 196 708 l 196 431 l 265 210 l 383 583 l 497 583 l 615 210 l 685 431 l 685 708 l 824 708 l 824 389 l 692 0 l 574 0 l 440 332 l 307 0 l 189 0 m 221 979 l 381 979 l 381 833 l 221 833 m 499 979 l 658 979 l 658 833 l 499 833 "},"ẁ":{"ha":881,"x_min":0,"x_max":0,"o":"m 57 389 l 57 708 l 196 708 l 196 431 l 265 210 l 383 583 l 497 583 l 615 210 l 685 431 l 685 708 l 824 708 l 824 389 l 692 0 l 574 0 l 440 332 l 307 0 l 189 0 m 344 1044 l 508 833 l 367 833 l 158 1044 "},"x":{"ha":672,"x_min":0,"x_max":0,"o":"m 254 354 l 17 708 l 181 708 l 336 476 l 492 708 l 656 708 l 418 354 l 656 0 l 492 0 l 336 232 l 181 0 l 17 0 "},"y":{"ha":654,"x_min":0,"x_max":0,"o":"m 249 56 l 25 708 l 172 708 l 324 263 l 488 708 l 636 708 l 269 -292 l 121 -292 "},"ý":{"ha":654,"x_min":0,"x_max":0,"o":"m 249 56 l 25 708 l 172 708 l 324 263 l 488 708 l 636 708 l 269 -292 l 121 -292 m 400 1044 l 589 1044 l 375 833 l 236 833 "},"ŷ":{"ha":654,"x_min":0,"x_max":0,"o":"m 249 56 l 25 708 l 172 708 l 324 263 l 488 708 l 636 708 l 269 -292 l 121 -292 m 271 1044 l 390 1044 l 585 833 l 424 833 l 331 944 l 238 833 l 76 833 "},"ÿ":{"ha":654,"x_min":0,"x_max":0,"o":"m 249 56 l 25 708 l 172 708 l 324 263 l 488 708 l 636 708 l 269 -292 l 121 -292 m 111 979 l 271 979 l 271 833 l 111 833 m 389 979 l 549 979 l 549 833 l 389 833 "},"ỳ":{"ha":654,"x_min":0,"x_max":0,"o":"m 249 56 l 25 708 l 172 708 l 324 263 l 488 708 l 636 708 l 269 -292 l 121 -292 m 235 1044 l 399 833 l 257 833 l 49 1044 "},"z":{"ha":672,"x_min":0,"x_max":0,"o":"m 447 569 l 51 569 l 51 708 l 621 708 l 621 569 l 225 139 l 621 139 l 621 0 l 51 0 l 51 139 "},"ź":{"ha":672,"x_min":0,"x_max":0,"o":"m 447 569 l 51 569 l 51 708 l 621 708 l 621 569 l 225 139 l 621 139 l 621 0 l 51 0 l 51 139 m 413 1044 l 601 1044 l 388 833 l 249 833 "},"ž":{"ha":672,"x_min":0,"x_max":0,"o":"m 447 569 l 51 569 l 51 708 l 621 708 l 621 569 l 225 139 l 621 139 l 621 0 l 51 0 l 51 139 m 250 1044 l 343 919 l 436 1044 l 597 1044 l 417 833 l 269 833 l 89 1044 "},"ż":{"ha":672,"x_min":0,"x_max":0,"o":"m 447 569 l 51 569 l 51 708 l 621 708 l 621 569 l 225 139 l 621 139 l 621 0 l 51 0 l 51 139 m 267 979 l 426 979 l 426 833 l 267 833 "},"⁄":{"ha":689,"x_min":0,"x_max":0,"o":"m 39 222 l 511 800 l 511 972 l 650 972 l 650 750 l 178 172 l 178 0 l 39 0 "},".":{"ha":296,"x_min":0,"x_max":0,"o":"m 68 146 l 228 146 l 228 0 l 68 0 "},",":{"ha":288,"x_min":0,"x_max":0,"o":"m 92 139 l 231 139 l 197 38 l 53 -153 l -8 -153 "},":":{"ha":308,"x_min":0,"x_max":0,"o":"m 78 535 l 238 535 l 238 389 l 78 389 m 78 146 l 238 146 l 238 0 l 78 0 "},";":{"ha":336,"x_min":0,"x_max":0,"o":"m 119 139 l 258 139 l 225 38 l 81 -153 l 19 -153 m 106 535 l 265 535 l 265 389 l 106 389 "},"…":{"ha":747,"x_min":0,"x_max":0,"o":"m 297 146 l 457 146 l 457 0 l 297 0 m 68 146 l 228 146 l 228 0 l 68 0 m 526 146 l 686 146 l 686 0 l 526 0 "},"!":{"ha":319,"x_min":0,"x_max":0,"o":"m 90 461 l 90 972 l 229 972 l 229 461 l 201 310 l 118 310 m 83 139 l 236 139 l 236 0 l 83 0 "},"¡":{"ha":319,"x_min":0,"x_max":0,"o":"m 201 399 l 229 247 l 229 -264 l 90 -264 l 90 247 l 118 399 m 83 708 l 236 708 l 236 569 l 83 569 "},"?":{"ha":693,"x_min":0,"x_max":0,"o":"m 268 474 l 504 622 l 504 722 b 393 833 504 785 456 833 l 282 833 b 171 722 221 833 171 783 l 171 674 l 32 674 l 32 722 b 282 972 32 861 144 972 l 393 972 b 643 722 532 972 643 861 l 643 546 l 407 397 l 407 310 l 268 310 m 261 139 l 414 139 l 414 0 l 261 0 "},"¿":{"ha":693,"x_min":0,"x_max":0,"o":"m 425 235 l 189 86 l 189 -14 b 300 -125 189 -76 238 -125 l 411 -125 b 522 -14 472 -125 522 -75 l 522 35 l 661 35 l 661 -14 b 411 -264 661 -153 549 -264 l 300 -264 b 50 -14 161 -264 50 -153 l 50 163 l 286 311 l 286 399 l 425 399 m 279 708 l 432 708 l 432 569 l 279 569 "},"·":{"ha":303,"x_min":0,"x_max":0,"o":"m 75 535 l 235 535 l 235 389 l 75 389 "},"•":{"ha":444,"x_min":0,"x_max":0,"o":"m 107 528 l 246 528 l 343 486 l 343 375 l 246 333 l 107 333 "},"*":{"ha":550,"x_min":0,"x_max":0,"o":"m 206 597 l 242 707 l 165 621 l 117 593 l 47 713 l 96 740 l 208 764 l 96 788 l 47 815 l 117 935 l 165 907 l 242 821 l 206 931 l 206 986 l 344 986 l 344 931 l 308 821 l 385 907 l 433 935 l 503 815 l 454 788 l 342 764 l 454 740 l 503 713 l 433 593 l 385 621 l 307 707 l 344 597 l 344 542 l 206 542 "},"#":{"ha":708,"x_min":0,"x_max":0,"o":"m 367 264 l 281 264 l 243 0 l 104 0 l 140 264 l 49 264 l 63 403 l 160 403 l 183 569 l 76 569 l 90 708 l 203 708 l 239 972 l 381 972 l 343 708 l 429 708 l 465 972 l 607 972 l 569 708 l 660 708 l 646 569 l 550 569 l 526 403 l 632 403 l 618 264 l 507 264 l 469 0 l 331 0 m 386 403 l 410 569 l 324 569 l 300 403 "},"/":{"ha":689,"x_min":0,"x_max":0,"o":"m 39 222 l 511 800 l 511 972 l 650 972 l 650 750 l 178 172 l 178 0 l 39 0 "},"\\":{"ha":689,"x_min":0,"x_max":0,"o":"m 511 0 l 511 172 l 39 750 l 39 972 l 178 972 l 178 800 l 650 222 l 650 0 "},"-":{"ha":628,"x_min":0,"x_max":0,"o":"m 64 440 l 564 440 l 564 301 l 64 301 "},"–":{"ha":794,"x_min":0,"x_max":0,"o":"m 64 440 l 731 440 l 731 301 l 64 301 "},"—":{"ha":933,"x_min":0,"x_max":0,"o":"m 64 440 l 869 440 l 869 301 l 64 301 "},"_":{"ha":914,"x_min":0,"x_max":0,"o":"m 54 -46 l 860 -46 l 860 -185 l 54 -185 "},"(":{"ha":510,"x_min":0,"x_max":0,"o":"m 332 -140 b 82 111 194 -140 82 -26 l 82 861 b 332 1111 82 1000 194 1111 l 471 1111 l 471 972 l 332 972 b 221 861 269 972 221 922 l 221 111 b 332 0 221 50 271 0 l 471 0 l 471 -140 l 332 -140 "},")":{"ha":510,"x_min":0,"x_max":0,"o":"m 39 -140 l 39 0 l 178 0 b 289 111 239 0 289 50 l 289 861 b 178 972 289 922 240 972 l 39 972 l 39 1111 l 178 1111 b 428 861 315 1111 428 1000 l 428 111 b 178 -140 428 -26 315 -140 "},"{":{"ha":476,"x_min":0,"x_max":0,"o":"m 47 556 b 158 667 110 556 158 604 l 158 861 b 408 1111 158 1000 269 1111 l 436 1111 l 436 972 l 408 972 b 297 861 346 972 297 924 l 297 667 b 221 486 297 596 268 532 b 297 306 268 440 297 376 l 297 111 b 408 0 297 49 346 0 l 436 0 l 436 -139 l 408 -139 b 158 111 269 -139 158 -28 l 158 306 b 47 417 158 368 110 417 l 47 556 "},"}":{"ha":476,"x_min":0,"x_max":0,"o":"m 429 417 b 318 306 367 417 318 368 l 318 111 b 68 -139 318 -28 207 -139 l 40 -139 l 40 0 l 68 0 b 179 111 131 0 179 49 l 179 306 b 256 486 179 376 208 440 b 179 667 208 532 179 596 l 179 861 b 68 972 179 924 131 972 l 40 972 l 40 1111 l 68 1111 b 318 861 207 1111 318 1000 l 318 667 b 429 556 318 604 367 556 l 429 417 "},"[":{"ha":517,"x_min":0,"x_max":0,"o":"m 478 1111 l 478 972 l 228 972 l 228 0 l 478 0 l 478 -139 l 89 -139 l 89 1111 "},"]":{"ha":517,"x_min":0,"x_max":0,"o":"m 39 -139 l 39 0 l 289 0 l 289 972 l 39 972 l 39 1111 l 428 1111 l 428 -139 "},"‚":{"ha":288,"x_min":0,"x_max":0,"o":"m 92 139 l 231 139 l 197 38 l 53 -153 l -8 -153 "},"„":{"ha":288,"x_min":0,"x_max":0,"o":"m 92 139 l 231 139 l 197 38 l 53 -153 l -8 -153 "},"“":{"ha":536,"x_min":0,"x_max":0,"o":"m 176 696 l 38 696 l 71 797 l 215 988 l 276 988 m 306 797 l 450 988 l 511 988 l 411 696 l 272 696 "},"”":{"ha":532,"x_min":0,"x_max":0,"o":"m 375 986 l 514 986 l 481 885 l 336 694 l 275 694 m 140 986 l 279 986 l 246 885 l 101 694 l 40 694 "},"‘":{"ha":301,"x_min":0,"x_max":0,"o":"m 176 696 l 38 696 l 71 797 l 215 988 l 276 988 "},"’":{"ha":297,"x_min":0,"x_max":0,"o":"m 140 986 l 279 986 l 246 885 l 101 694 l 40 694 "},"«":{"ha":799,"x_min":0,"x_max":0,"o":"m 431 285 l 431 424 l 644 606 l 724 606 l 724 467 l 696 467 l 565 356 l 565 353 l 696 242 l 724 242 l 724 103 l 644 103 m 57 424 l 335 660 l 460 660 l 460 521 l 386 521 l 192 356 l 192 353 l 386 188 l 460 188 l 460 49 l 335 49 l 57 285 "},"»":{"ha":799,"x_min":0,"x_max":0,"o":"m 75 103 l 75 242 l 103 242 l 233 353 l 233 356 l 103 467 l 75 467 l 75 606 l 154 606 l 368 424 l 368 285 l 154 103 m 339 188 l 413 188 l 607 353 l 607 356 l 413 521 l 339 521 l 339 660 l 464 660 l 742 424 l 742 285 l 464 49 l 339 49 "},"‹":{"ha":528,"x_min":0,"x_max":0,"o":"m 57 285 l 57 424 l 335 660 l 460 660 l 460 521 l 386 521 l 192 356 l 192 353 l 386 188 l 460 188 l 460 49 l 335 49 "},"›":{"ha":528,"x_min":0,"x_max":0,"o":"m 68 49 l 68 188 l 142 188 l 336 353 l 336 356 l 142 521 l 68 521 l 68 660 l 193 660 l 471 424 l 471 285 l 193 49 "},"\"":{"ha":478,"x_min":0,"x_max":0,"o":"m 281 846 l 281 986 l 419 986 l 419 846 l 392 694 l 308 694 m 58 986 l 197 986 l 197 846 l 169 694 l 86 694 l 58 846 "},"'":{"ha":256,"x_min":0,"x_max":0,"o":"m 58 846 l 58 986 l 197 986 l 197 846 l 169 694 l 86 694 "},"@":{"ha":861,"x_min":0,"x_max":0,"o":"m 332 -240 b 82 11 194 -240 82 -126 l 82 722 b 332 972 82 861 194 972 l 526 972 b 776 722 665 972 776 861 l 776 54 l 638 54 l 638 104 l 564 54 l 521 54 b 271 304 383 54 271 167 l 271 429 b 521 679 271 568 383 679 l 564 679 l 638 629 l 638 722 b 526 833 638 785 589 833 l 332 833 b 221 722 269 833 221 783 l 221 11 b 332 -100 221 -50 271 -100 l 594 -100 l 594 -240 l 332 -240 m 410 304 b 521 193 410 243 460 193 l 638 271 l 638 463 l 521 540 b 410 429 460 540 410 490 l 410 304 "},"&":{"ha":758,"x_min":0,"x_max":0,"o":"m 328 0 b 17 358 128 0 17 143 l 208 506 b 124 724 158 579 124 654 b 368 972 124 842 199 972 b 621 663 522 972 621 846 l 397 488 b 560 307 449 431 506 369 b 575 417 569 340 575 376 l 575 451 l 714 451 l 714 417 b 651 190 714 333 690 256 b 728 0 697 124 728 60 l 589 0 b 558 83 589 25 578 53 b 328 0 494 32 414 0 m 156 299 b 328 139 165 194 217 139 b 479 189 389 139 440 157 b 289 403 422 254 351 328 l 156 299 m 263 719 b 317 590 263 682 283 638 l 471 708 b 365 839 471 796 424 839 b 263 719 296 839 263 782 "},"¶":{"ha":793,"x_min":0,"x_max":0,"o":"m 290 389 b 40 639 151 389 40 500 l 40 722 b 290 972 40 861 151 972 l 499 972 l 499 0 l 360 0 l 360 389 l 290 389 m 568 972 l 707 972 l 707 0 l 568 0 "},"§":{"ha":833,"x_min":0,"x_max":0,"o":""},"©":{"ha":804,"x_min":0,"x_max":0,"o":"m 403 0 b 69 310 204 0 69 131 l 69 542 b 403 851 69 721 206 851 b 735 542 600 851 735 721 l 735 310 b 403 0 735 131 600 0 m 167 310 b 403 97 167 188 254 97 b 638 310 550 97 638 188 l 638 542 b 403 754 638 664 550 754 b 167 542 256 754 167 664 l 167 310 m 243 463 b 403 632 243 558 311 632 b 563 463 493 632 563 558 l 563 461 l 465 461 l 465 463 b 403 535 465 506 439 535 b 340 463 367 535 340 506 l 340 390 b 403 318 340 347 367 318 b 465 390 439 318 465 347 l 465 392 l 563 392 l 563 390 b 403 221 563 294 493 221 b 243 390 311 221 243 294 "},"®":{"ha":847,"x_min":0,"x_max":0,"o":"m 424 258 b 60 622 222 258 60 421 b 424 986 60 824 222 986 b 788 622 625 986 788 824 b 424 258 788 421 625 258 m 157 622 b 424 356 157 475 275 356 b 690 622 571 356 690 475 b 424 889 690 769 571 889 b 157 622 275 889 157 769 m 297 790 l 436 790 b 571 657 511 790 571 732 b 517 550 571 614 550 575 l 567 469 l 453 469 l 419 524 l 394 524 l 394 469 l 297 469 m 436 621 b 474 657 457 621 474 638 b 436 693 474 678 457 693 l 394 693 l 394 621 "},"™":{"ha":1057,"x_min":0,"x_max":0,"o":"m 503 972 l 614 972 l 739 718 l 864 972 l 975 972 l 975 500 l 878 500 l 878 801 l 776 597 l 701 597 l 600 801 l 600 500 l 503 500 m 31 972 l 433 972 l 433 875 l 281 875 l 281 500 l 183 500 l 183 875 l 31 875 "},"°":{"ha":482,"x_min":0,"x_max":0,"o":"m 242 617 b 57 801 139 617 57 699 b 242 986 57 904 139 986 b 425 801 343 986 425 904 b 242 617 425 699 343 617 m 196 801 b 242 756 196 776 217 756 b 286 801 267 756 286 776 b 242 847 286 826 267 847 b 196 801 217 847 196 826 "},"|":{"ha":314,"x_min":0,"x_max":0,"o":"m 88 1111 l 226 1111 l 226 -139 l 88 -139 "},"¦":{"ha":314,"x_min":0,"x_max":0,"o":"m 88 1111 l 226 1111 l 226 685 l 88 685 m 88 288 l 226 288 l 226 -139 l 88 -139 "},"†":{"ha":642,"x_min":0,"x_max":0,"o":"m 251 667 l 43 667 l 43 806 l 251 806 l 251 972 l 390 972 l 390 806 l 599 806 l 599 667 l 390 667 l 390 250 l 251 250 "},"‡":{"ha":683,"x_min":0,"x_max":0,"o":"m 64 556 l 272 556 l 272 667 l 64 667 l 64 806 l 272 806 l 272 972 l 411 972 l 411 806 l 619 806 l 619 667 l 411 667 l 411 556 l 619 556 l 619 417 l 411 417 l 411 250 l 272 250 l 272 417 l 64 417 "},"¢":{"ha":726,"x_min":0,"x_max":0,"o":"m 299 0 b 63 251 168 8 63 118 l 63 458 b 299 708 63 593 168 701 l 299 847 l 438 847 l 438 708 b 674 458 569 701 674 593 l 674 444 l 535 444 l 535 458 b 438 568 535 517 493 563 l 438 142 b 535 251 492 149 535 194 l 535 265 l 674 265 l 674 251 b 438 0 674 118 569 8 l 438 -139 l 299 -139 m 201 251 b 299 142 201 194 244 149 l 299 568 b 201 458 243 563 201 515 l 201 251 "},"¤":{"ha":658,"x_min":0,"x_max":0,"o":"m 56 236 l 132 314 b 132 511 100 375 100 450 l 56 589 l 153 686 l 231 610 b 428 610 292 642 367 642 l 506 686 l 603 589 l 526 511 b 526 314 558 450 558 375 l 603 236 l 506 139 l 428 215 b 231 215 367 183 292 183 l 153 139 m 271 354 b 388 354 303 322 356 322 b 388 471 419 386 419 439 b 271 471 356 503 303 503 b 271 354 239 439 239 386 "},"$":{"ha":696,"x_min":0,"x_max":0,"o":"m 278 1 b 42 258 146 13 42 122 l 42 314 l 181 314 l 181 258 b 278 142 181 200 222 151 l 278 469 b 56 742 165 536 56 613 b 278 971 56 867 146 957 l 278 1111 l 417 1111 l 417 969 b 639 714 542 951 639 844 l 639 672 l 500 672 l 500 714 b 417 828 500 768 465 813 l 417 551 b 653 244 533 482 653 394 b 417 1 653 113 553 11 l 417 -139 l 278 -139 m 194 742 b 278 635 194 701 228 668 l 278 831 b 194 742 225 821 194 789 m 417 140 b 514 244 475 150 514 190 b 417 385 514 301 474 344 l 417 140 "},"€":{"ha":729,"x_min":0,"x_max":0,"o":"m 397 0 b 147 251 260 0 147 114 l 147 300 l 64 300 l 64 439 l 147 439 l 147 494 l 64 494 l 64 633 l 147 633 l 147 722 b 397 972 147 861 260 972 l 425 972 b 675 722 564 972 675 861 l 675 708 l 536 708 l 536 722 b 425 833 536 785 488 833 l 397 833 b 286 722 335 833 286 783 l 286 633 l 474 633 l 474 494 l 286 494 l 286 439 l 474 439 l 474 300 l 286 300 l 286 251 b 397 140 286 190 336 140 l 425 140 b 536 251 486 140 536 190 l 536 265 l 675 265 l 675 251 b 425 0 675 114 564 0 l 397 0 "},"£":{"ha":700,"x_min":0,"x_max":0,"o":"m 33 139 l 117 139 b 228 250 179 139 228 188 l 228 390 l 75 390 l 75 515 l 228 515 l 228 722 b 478 972 228 861 339 972 l 644 972 l 644 833 l 478 833 b 367 722 415 833 367 785 l 367 515 l 568 515 l 568 390 l 367 390 l 367 250 b 342 139 367 210 357 172 l 644 139 l 644 0 l 33 0 "},"¥":{"ha":729,"x_min":0,"x_max":0,"o":"m 119 439 l 218 439 l 57 639 l 57 972 l 196 972 l 196 689 l 360 485 l 365 485 l 529 689 l 529 972 l 668 972 l 668 639 l 507 439 l 613 439 l 613 300 l 432 300 l 432 231 l 613 231 l 613 92 l 432 92 l 432 0 l 293 0 l 293 92 l 119 92 l 119 231 l 293 231 l 293 300 l 119 300 "},"+":{"ha":694,"x_min":0,"x_max":0,"o":"m 97 440 l 278 440 l 278 621 l 417 621 l 417 440 l 597 440 l 597 301 l 417 301 l 417 121 l 278 121 l 278 301 l 97 301 "},"−":{"ha":694,"x_min":0,"x_max":0,"o":"m 97 440 l 597 440 l 597 301 l 97 301 "},"×":{"ha":694,"x_min":0,"x_max":0,"o":"m 219 599 l 347 471 l 475 599 l 574 501 l 446 374 l 574 246 l 475 147 l 347 275 l 219 147 l 121 246 l 249 374 l 121 501 "},"÷":{"ha":694,"x_min":0,"x_max":0,"o":"m 97 440 l 597 440 l 597 301 l 97 301 m 271 225 l 431 225 l 431 79 l 271 79 m 271 669 l 431 669 l 431 524 l 271 524 "},"=":{"ha":694,"x_min":0,"x_max":0,"o":"m 97 588 l 597 588 l 597 449 l 97 449 m 97 322 l 597 322 l 597 183 l 97 183 "},"≠":{"ha":694,"x_min":0,"x_max":0,"o":"m 197 183 l 97 183 l 97 322 l 250 322 l 297 449 l 97 449 l 97 588 l 349 588 l 394 708 l 543 708 l 497 588 l 597 588 l 597 449 l 446 449 l 399 322 l 597 322 l 597 183 l 346 183 l 299 57 l 150 57 "},">":{"ha":694,"x_min":0,"x_max":0,"o":"m 149 49 l 149 188 l 222 188 l 417 353 l 417 356 l 222 521 l 149 521 l 149 660 l 274 660 l 551 424 l 551 285 l 274 49 "},"<":{"ha":694,"x_min":0,"x_max":0,"o":"m 143 285 l 143 424 l 421 660 l 546 660 l 546 521 l 472 521 l 278 356 l 278 353 l 472 188 l 546 188 l 546 49 l 421 49 "},"≥":{"ha":694,"x_min":0,"x_max":0,"o":"m 100 431 l 193 431 l 424 540 l 424 543 l 193 653 l 100 653 l 100 792 l 225 792 l 600 611 l 600 472 l 225 292 l 100 292 m 100 222 l 600 222 l 600 83 l 100 83 "},"≤":{"ha":694,"x_min":0,"x_max":0,"o":"m 469 292 l 94 472 l 94 611 l 469 792 l 594 792 l 594 653 l 501 653 l 271 543 l 271 540 l 501 431 l 594 431 l 594 292 m 94 222 l 594 222 l 594 83 l 94 83 "},"±":{"ha":694,"x_min":0,"x_max":0,"o":"m 97 639 l 278 639 l 278 819 l 417 819 l 417 639 l 597 639 l 597 500 l 417 500 l 417 319 l 278 319 l 278 500 l 97 500 m 97 250 l 597 250 l 597 111 l 97 111 "},"≈":{"ha":694,"x_min":0,"x_max":0,"o":"m 257 196 b 200 150 222 194 213 183 l 69 194 b 286 335 104 294 172 339 l 438 271 b 494 317 472 272 482 283 l 625 272 b 408 132 590 172 522 128 l 257 196 m 69 485 b 286 625 104 585 172 629 l 438 561 b 494 607 472 563 482 574 l 625 563 b 408 422 590 463 522 418 l 257 486 b 200 440 222 485 213 474 l 69 485 "},"~":{"ha":694,"x_min":0,"x_max":0,"o":"m 257 361 b 200 315 222 360 213 349 l 69 360 b 286 500 104 460 172 504 l 438 436 b 494 482 472 438 482 449 l 625 438 b 408 297 590 338 522 293 l 257 361 "},"¬":{"ha":694,"x_min":0,"x_max":0,"o":"m 457 301 l 96 301 l 96 440 l 596 440 l 596 172 l 457 172 "},"^":{"ha":694,"x_min":0,"x_max":0,"o":"m 97 611 l 278 986 l 417 986 l 597 611 l 597 486 l 458 486 l 458 579 l 349 810 l 346 810 l 236 579 l 236 486 l 97 486 "},"∅":{"ha":706,"x_min":0,"x_max":0,"o":"m 353 56 b 303 60 336 56 319 57 l 281 0 l 160 0 l 197 100 b 54 356 111 153 54 247 b 353 653 54 519 189 653 b 403 649 369 653 386 651 l 425 708 l 546 708 l 508 608 b 651 356 594 557 651 463 b 353 56 651 190 518 56 m 193 356 b 247 235 193 307 214 264 l 353 514 b 193 356 265 514 193 442 m 353 194 b 513 356 440 194 513 267 b 458 474 513 403 492 444 l 353 194 "},"∞":{"ha":856,"x_min":0,"x_max":0,"o":"m 261 501 b 192 407 221 489 192 451 b 261 313 192 363 221 325 l 339 407 l 261 501 m 53 407 b 325 642 53 550 178 663 l 428 517 l 531 642 b 803 407 678 663 803 550 b 531 172 803 264 678 151 l 428 297 l 325 172 b 53 407 178 151 53 264 m 594 313 b 664 407 635 325 664 363 b 594 501 664 451 635 489 l 517 407 "},"∫":{"ha":833,"x_min":0,"x_max":0,"o":""},"∏":{"ha":833,"x_min":0,"x_max":0,"o":""},"∑":{"ha":833,"x_min":0,"x_max":0,"o":""},"√":{"ha":833,"x_min":0,"x_max":0,"o":""},"∂":{"ha":833,"x_min":0,"x_max":0,"o":""},"%":{"ha":842,"x_min":0,"x_max":0,"o":"m 115 222 l 588 800 l 588 972 l 726 972 l 726 750 l 254 172 l 254 0 l 115 0 m 32 788 b 217 972 32 890 114 972 b 400 788 318 972 400 890 b 217 603 400 685 318 603 b 32 788 114 603 32 685 m 171 788 b 217 742 171 763 192 742 b 261 788 242 742 261 763 b 217 833 261 813 242 833 b 171 788 192 833 171 813 m 442 185 b 626 369 442 288 524 369 b 810 185 728 369 810 288 b 626 0 810 82 728 0 b 442 185 524 0 442 82 m 581 185 b 626 139 581 160 601 139 b 671 185 651 139 671 160 b 626 231 671 210 651 231 b 581 185 601 231 581 210 "},"‰":{"ha":1256,"x_min":0,"x_max":0,"o":"m 1050 0 b 865 185 947 0 865 82 b 1050 369 865 288 947 369 b 1233 185 1151 369 1233 288 b 1050 0 1233 82 1151 0 m 32 788 b 217 972 32 890 114 972 b 400 788 318 972 400 890 b 217 603 400 685 318 603 b 32 788 114 603 32 685 m 115 222 l 588 800 l 588 972 l 726 972 l 726 750 l 254 172 l 254 0 l 115 0 m 171 788 b 217 742 171 763 192 742 b 261 788 242 742 261 763 b 217 833 261 813 242 833 b 171 788 192 833 171 813 m 442 185 b 626 369 442 288 524 369 b 810 185 728 369 810 288 b 626 0 810 82 728 0 b 442 185 524 0 442 82 m 581 185 b 626 139 581 160 601 139 b 671 185 651 139 671 160 b 626 231 671 210 651 231 b 581 185 601 231 581 210 m 1004 185 b 1050 139 1004 160 1025 139 b 1094 185 1075 139 1094 160 b 1050 231 1094 210 1075 231 b 1004 185 1025 231 1004 210 "},"↑":{"ha":719,"x_min":0,"x_max":0,"o":"m 526 319 l 526 393 l 429 507 l 429 0 l 290 0 l 290 507 l 193 393 l 193 319 l 54 319 l 54 444 l 290 722 l 429 722 l 665 444 l 665 319 "},"↗":{"ha":704,"x_min":0,"x_max":0,"o":"m 433 214 l 485 265 l 497 415 l 138 57 l 40 154 l 399 514 l 249 501 l 197 449 l 99 547 l 188 636 l 550 665 l 649 567 l 619 204 l 531 115 "},"→":{"ha":842,"x_min":0,"x_max":0,"o":"m 379 201 l 453 201 l 567 299 l 60 299 l 60 438 l 567 438 l 453 535 l 379 535 l 379 674 l 504 674 l 782 438 l 782 299 l 504 63 l 379 63 "},"↘":{"ha":704,"x_min":0,"x_max":0,"o":"m 619 521 l 649 158 l 550 60 l 188 89 l 99 178 l 197 276 l 249 224 l 399 211 l 40 571 l 138 668 l 497 310 l 485 460 l 433 511 l 531 610 "},"↓":{"ha":719,"x_min":0,"x_max":0,"o":"m 665 278 l 429 0 l 290 0 l 54 278 l 54 403 l 193 403 l 193 329 l 290 215 l 290 722 l 429 722 l 429 215 l 526 329 l 526 403 l 665 403 "},"↙":{"ha":704,"x_min":0,"x_max":0,"o":"m 271 511 l 219 460 l 207 310 l 567 668 l 664 571 l 306 211 l 456 224 l 507 276 l 606 178 l 517 89 l 154 60 l 56 158 l 85 521 l 174 610 "},"←":{"ha":842,"x_min":0,"x_max":0,"o":"m 338 63 l 60 299 l 60 438 l 338 674 l 463 674 l 463 535 l 389 535 l 275 438 l 782 438 l 782 299 l 275 299 l 389 201 l 463 201 l 463 63 "},"↖":{"ha":704,"x_min":0,"x_max":0,"o":"m 85 204 l 56 567 l 154 665 l 517 636 l 606 547 l 507 449 l 456 501 l 306 514 l 664 154 l 567 57 l 207 415 l 219 265 l 271 214 l 174 115 "},"↔":{"ha":922,"x_min":0,"x_max":0,"o":"m 586 685 l 864 449 l 864 310 l 586 74 l 535 213 l 649 310 l 274 310 l 388 213 l 336 74 l 58 310 l 58 449 l 336 685 l 388 546 l 274 449 l 649 449 l 535 546 "},"↕":{"ha":694,"x_min":0,"x_max":0,"o":"m 42 528 l 278 806 l 417 806 l 653 528 l 514 476 l 417 590 l 417 215 l 514 329 l 653 278 l 417 0 l 278 0 l 42 278 l 181 329 l 278 215 l 278 590 l 181 476 "},"◊":{"ha":733,"x_min":0,"x_max":0,"o":"m 61 278 l 61 526 l 297 804 l 436 804 l 672 526 l 672 278 l 436 0 l 297 0 m 365 135 l 368 135 l 533 329 l 533 475 l 368 669 l 365 669 l 200 475 l 200 329 "},"̈":{"ha":0,"x_min":0,"x_max":0,"o":"m 347 979 l 507 979 l 507 833 l 347 833 m 69 979 l 229 979 l 229 833 l 69 833 "},"̇":{"ha":0,"x_min":0,"x_max":0,"o":"m 69 979 l 229 979 l 229 833 l 69 833 "},"̀":{"ha":0,"x_min":0,"x_max":0,"o":"m 69 1044 l 256 1044 l 419 833 l 278 833 "},"́":{"ha":0,"x_min":0,"x_max":0,"o":"m 233 1044 l 422 1044 l 208 833 l 69 833 "},"̋":{"ha":0,"x_min":0,"x_max":0,"o":"m 494 1044 l 683 1044 l 489 833 l 328 833 m 236 1044 l 425 1044 l 231 833 l 69 833 "},"̂":{"ha":0,"x_min":0,"x_max":0,"o":"m 264 1044 l 383 1044 l 578 833 l 417 833 l 324 944 l 231 833 l 69 833 "},"̌":{"ha":0,"x_min":0,"x_max":0,"o":"m 69 1044 l 231 1044 l 324 919 l 417 1044 l 578 1044 l 397 833 l 250 833 "},"̆":{"ha":0,"x_min":0,"x_max":0,"o":"m 283 833 b 69 1047 165 833 69 929 l 69 1049 l 208 1049 l 208 1047 b 283 972 208 1006 242 972 b 357 1047 324 972 357 1006 l 357 1049 l 496 1049 l 496 1047 b 283 833 496 929 400 833 "},"̊":{"ha":0,"x_min":0,"x_max":0,"o":"m 246 768 b 69 939 147 768 69 844 b 246 1110 69 1033 147 1110 b 421 939 342 1110 421 1033 b 246 768 421 846 342 768 m 192 940 b 244 882 192 908 214 882 b 299 940 275 882 299 908 b 244 996 299 972 275 996 b 192 940 214 996 192 972 "},"̃":{"ha":0,"x_min":0,"x_max":0,"o":"m 257 889 b 200 843 222 888 213 876 l 69 888 b 286 1028 104 988 172 1032 l 443 964 b 500 1010 478 965 488 976 l 631 965 b 414 825 596 865 528 821 l 257 889 "},"̄":{"ha":0,"x_min":0,"x_max":0,"o":"m 69 972 l 514 972 l 514 833 l 69 833 "},"̒":{"ha":0,"x_min":0,"x_max":0,"o":"m 208 833 l 69 833 l 103 935 l 247 1125 l 308 1125 "},"̦":{"ha":0,"x_min":0,"x_max":0,"o":"m 169 -42 l 308 -42 l 275 -143 l 131 -333 l 69 -333 "},"̧":{"ha":0,"x_min":0,"x_max":0,"o":"m 69 -231 l 228 -231 b 264 -201 251 -231 264 -217 b 228 -172 264 -187 251 -172 l 136 -172 l 71 -81 l 103 -47 l 103 25 l 242 25 l 242 -54 b 403 -201 338 -54 403 -119 b 228 -356 403 -290 324 -356 l 69 -356 "},"̨":{"ha":0,"x_min":0,"x_max":0,"o":"m 231 -292 b 164 0 53 -292 10 -97 l 303 0 b 319 -153 149 -104 257 -153 l 319 -292 l 231 -292 "},"̵":{"ha":0,"x_min":0,"x_max":0,"o":"m 167 440 l 667 440 l 667 301 l 167 301 "},"̶":{"ha":0,"x_min":0,"x_max":0,"o":"m 14 440 l 819 440 l 819 301 l 14 301 "},"̷":{"ha":0,"x_min":0,"x_max":0,"o":"m 525 840 l 674 840 l 310 -132 l 161 -132 "},"̸":{"ha":0,"x_min":0,"x_max":0,"o":"m 579 1118 l 728 1118 l 254 -146 l 106 -146 "},"¨":{"ha":576,"x_min":0,"x_max":0,"o":"m 347 979 l 507 979 l 507 833 l 347 833 m 69 979 l 229 979 l 229 833 l 69 833 "},"˙":{"ha":292,"x_min":0,"x_max":0,"o":"m 69 979 l 229 979 l 229 833 l 69 833 "},"`":{"ha":489,"x_min":0,"x_max":0,"o":"m 69 1044 l 256 1044 l 419 833 l 278 833 "},"´":{"ha":492,"x_min":0,"x_max":0,"o":"m 233 1044 l 422 1044 l 208 833 l 69 833 "},"˝":{"ha":753,"x_min":0,"x_max":0,"o":"m 494 1044 l 683 1044 l 489 833 l 328 833 m 236 1044 l 425 1044 l 231 833 l 69 833 "},"ˆ":{"ha":647,"x_min":0,"x_max":0,"o":"m 264 1044 l 383 1044 l 578 833 l 417 833 l 324 944 l 231 833 l 69 833 "},"ˇ":{"ha":647,"x_min":0,"x_max":0,"o":"m 69 1044 l 231 1044 l 324 919 l 417 1044 l 578 1044 l 397 833 l 250 833 "},"˘":{"ha":565,"x_min":0,"x_max":0,"o":"m 283 833 b 69 1047 165 833 69 929 l 69 1049 l 208 1049 l 208 1047 b 283 972 208 1006 242 972 b 357 1047 324 972 357 1006 l 357 1049 l 496 1049 l 496 1047 b 283 833 496 929 400 833 "},"˚":{"ha":490,"x_min":0,"x_max":0,"o":"m 246 768 b 69 939 147 768 69 844 b 246 1110 69 1033 147 1110 b 421 939 342 1110 421 1033 b 246 768 421 846 342 768 m 192 940 b 244 882 192 908 214 882 b 299 940 275 882 299 908 b 244 996 299 972 275 996 b 192 940 214 996 192 972 "},"˜":{"ha":694,"x_min":0,"x_max":0,"o":"m 257 889 b 200 843 222 888 213 876 l 69 888 b 286 1028 104 988 172 1032 l 438 964 b 494 1010 472 965 482 976 l 625 965 b 408 825 590 865 522 821 l 257 889 "},"¯":{"ha":583,"x_min":0,"x_max":0,"o":"m 69 972 l 514 972 l 514 833 l 69 833 "},"¸":{"ha":472,"x_min":0,"x_max":0,"o":"m 69 -231 l 228 -231 b 264 -201 251 -231 264 -217 b 228 -172 264 -187 251 -172 l 136 -172 l 71 -81 l 103 -47 l 103 25 l 242 25 l 242 -54 b 403 -201 338 -54 403 -119 b 228 -356 403 -290 324 -356 l 69 -356 "},"˛":{"ha":389,"x_min":0,"x_max":0,"o":"m 231 -292 b 164 0 53 -292 10 -97 l 303 0 b 319 -153 149 -104 257 -153 l 319 -292 l 231 -292 "}}}
